<svg xmlns="http://www.w3.org/2000/svg" viewBox="0 0 802 460"><defs><style>.cls-1,.cls-8{fill:#de6788;}.cls-1,.cls-10,.cls-11,.cls-12,.cls-2,.cls-3,.cls-5,.cls-6,.cls-7,.cls-8,.cls-9{stroke:#313537;stroke-miterlimit:10;}.cls-1,.cls-2,.cls-3,.cls-5,.cls-6,.cls-7{stroke-linecap:round;}.cls-12,.cls-2{fill:none;}.cls-10,.cls-3{fill:#fff;}.cls-11,.cls-4{fill:#313537;}.cls-5,.cls-9{fill:#4c9dd6;}.cls-6{fill:#eeb539;}.cls-7{fill:#8fd6bd;}</style></defs><title>Artboard 1</title><g id="Front_End" data-name="Front End"><g id="big"><path class="cls-1" d="M53.15,38.06s-23.48,12-28.56,14.69c-.17.09-1.85.05-1.83.17.31,2.08,3,47.3,26.25,62.58,21.77,14.3,47,14.45,54.88,13.65a9,9,0,0,0,.25-1.35c.06-.33,12.52-13.81,11.69-14.08S53.15,38.06,53.15,38.06Z"/><path class="cls-2" d="M104,130.95c0,.3,3.94.3,3.94,0s.15-3.09-.3-3.09a21.42,21.42,0,0,0-3.54,0A11.53,11.53,0,0,0,104,130.95Z"/><path class="cls-2" d="M107.68,127.85c.3-.15,12.82-14.42,12.82-14.42"/><path class="cls-2" d="M108,130.95c.55-.3,13.17-14.12,13.17-14.12"/><path class="cls-2" d="M20.5,52.69a29.78,29.78,0,0,1-.12-3.56c.06-.25,4.06-.25,4.06.19s.39,3.41,0,3.5A15.77,15.77,0,0,1,20.5,52.69Z"/><path class="cls-2" d="M24.44,49.31c.73-.48,20.06-9.73,20.06-9.73"/><path class="cls-2" d="M20.38,49.13c.38-.71,23.79-11.62,23.79-11.62"/><path class="cls-2" d="M104.33,131.17c-.75.5-76.27,20-76.57,20-.75,0-5.65-1.78-6.91-2.16-.48-.14,7.15-3.7,7.9-3.95S87.58,129.25,88.83,129"/><path class="cls-2" d="M21.49,148.77c1.33-.17,77.4-19.28,77.4-19.28"/><path class="cls-2" d="M44.42,112.24c.45.3,17.25,23.64,17.25,23.64"/><line class="cls-2" x1="54.08" y1="118.64" x2="65.68" y2="134.7"/><line class="cls-2" x1="59.88" y1="121.61" x2="68.81" y2="133.95"/><path class="cls-2" d="M65.83,141.69,85,167.56c.45.59,6.23,2.23,6.84,2.23.45,0,3.87-1,3.27-1.49s-22-28.55-22-28.55"/><line class="cls-2" x1="69.85" y1="140.65" x2="91.71" y2="169.64"/><path class="cls-3" d="M67.08,42.58c.55.68.35,3.5.58,4.5.33,1.42,1.83,1.75,1.92,2.25s.92,2.5-1.83,4C62.92,56,57.16,51.8,54.24,50.8c-1-.35-3.66-12-2.66-12.3S65.67,40.83,67.08,42.58Z"/><path class="cls-3" d="M71.5,30.88c1.35,2.06.75,5.75.63,6.75s2.25,2.38,1.75,3.13-2.37,0-3,.88A11.67,11.67,0,0,1,52,40.75c-1.12-1.75-1.1-5.86,0-8C54.13,28.63,66.75,23.63,71.5,30.88Z"/><path class="cls-4" d="M66.5,36.13c-1.27,0-1.37,3.08-.12,3.08S67.67,36.13,66.5,36.13Z"/><path class="cls-5" d="M55.64,35.31c1.72,0,10.75,0,15.54-3.62,3.43-2.57,1.33-8.41-3.34-8.48-3.53-.06-5.1,2-6.1,1.91s-2.53-4.28-9-2.57c-7.42,2-4.41,11.08-5.28,12.21s-7.62.38-8.12,6.38,5.88,10,4.88,11.25-11.87,4.25-10.5,13.25,8.75,11.13,8.75,10,7.25-8,9.25-12.12,5.51-10.79,5.42-11.79,1.62-2.86.83-5.58c-.5-1.72-2.17-2.24-2.45-2.81-.72-1.46.91-3.58.29-5s-3.34.19-3.15-1.91C52.85,34.61,54.85,35.31,55.64,35.31Z"/><path class="cls-5" d="M97.83,83.5c1.83,0,41.09,10.67,43.33,17.17,1.67,4.83,4.5,21.5,5.5,27.67.67,4.13,2.83,15.5,2.33,16.33s-3.33,2.17-5,2.67-4.83,1-5.33.33-9.33-37.33-10.5-39.17S89.83,95.17,90.5,93.67,94.83,83.5,97.83,83.5Z"/><path class="cls-5" d="M81.61,109.32c.11,1.77,14.5,5.07,18.27,5.4,4.77.42,17.2,1,17.12,1.78-.31,3,2.39,15,4.25,22.5.67,2.68,4.61,20.06,6,20.5,1.58.5,10.58-2,10.41-3.27-.2-1.45-2.46-29.07-2.71-31.57s-2.62-17.81-4.59-20C128.08,102.11,93.5,89,91.25,90.75S81.41,106.07,81.61,109.32Z"/><line class="cls-2" x1="117" y1="116.5" x2="118.01" y2="115.67"/><path class="cls-6" d="M99.58,85.27a17,17,0,0,0-3.25-.6c-3.52-.27-8.33,1.08-7.65.59,1.77-1.26,4.74-3.89,3.72-4.64-1.27-.93-2.67,1.31-9.21,3.46s-20.35,11.69-24.59,12c-2.89.21-3.75-1.9-3.95-4.23a.4.4,0,0,1,0-.11c0-.2,0-.4,0-.6a.46.46,0,0,0-.06-.28c-.82-1.72-10-1.8-12.38-.14A1.31,1.31,0,0,0,42,91c-1.09,1.2-.6-12.94.1-17.12.74-4.46,5.05-15.24,8-18.88,1.34-1.64,4.07-3.73,6.48-3.47.5.05,5.86,3.33,9.57,2a5.87,5.87,0,0,0,3.41-4c.29-.79,1.65-.44,2.74-.05,1.87.67,5.19,7.07,8.48,12.73,1.2,2.08,2.39,4,3.51,5.61,5.08,7.09,9.44,11.63,16,15.08l0,0C100.77,83.14,100.43,84,99.58,85.27Z"/><path class="cls-6" d="M99.58,85.27c-.37.56-.83,1.2-1.37,1.91L97,88.7,95,91.4l-.74,1c-.63.84-1.27,1.71-1.91,2.63-3.2,4.55-6.44,10-7.87,15.73-.35,1.42-13.83-1-19.08-2.79l-.35-.12c-4.39-1.57-10.31-9.26-10.37-16,.2,2.33,1.06,4.44,3.95,4.23,4.24-.31,17.91-9.8,24.59-12s7.94-4.39,9.21-3.46c1,.75-2,3.38-3.72,4.64-.68.49,4.13-.86,7.65-.59A17,17,0,0,1,99.58,85.27Z"/><path class="cls-7" d="M135.78,89c0-.12,1.44-2.58,1-2.81-4.7-2.69-21-12.38-21.53-12.16-.86.36-30.48,13.34-34.48,15.59a5.52,5.52,0,0,0,.1,1.88c1.12.7,21.78,15.22,22.33,15C104.65,105.94,135.64,89.43,135.78,89Z"/><path class="cls-7" d="M103.46,104.7c.08.49,32.9-17.54,33.22-17.78s14.52-25,13.82-25.3c-1.32-.49-31.63,12.44-32.69,13.71S103.31,103.84,103.46,104.7Z"/><path class="cls-3" d="M113.75,82.37c-.72.18-.19-1.4-.82-3.65a7.83,7.83,0,0,0-3.3-3.79c-.63-.1,2.07,3.18,2.39,4.64.38,1.79.07,6-1.13,6s-.42-3.44-.91-5.4c-.35-1.39-2.21-4.67-2.74-4.35S108.51,79,108.72,81s-.25,5.62-1.41,5.83-.35-4.28-.7-6.39c-.16-1-1.85-3.88-2.54-3.63-.52.19.81,2.13,1.28,4.26.51,2.36.44,6-.92,5.48-.84-.35-.67-3.35-1.82-6.18s-3.92-3-4.67-1.93c-.56.79,4.28,5,2.63,5-3.63-.06-5.4-3.52-7.29-5.19a61.92,61.92,0,0,1-9-10.59c-1.12-1.56-2.31-3.53-3.51-5.61,2.11.12,11.84,8.42,14.65,9.18,3.48,1,11.27,1,13.8,1.58a8.07,8.07,0,0,1,5.26,4.53C115.14,79.31,114.31,82.23,113.75,82.37Z"/><path class="cls-1" d="M129.14,82.57c-.56.11-2.69,2.93-3.71,2.39-.79-.42,4.13-6.46,4.83-6.6.43-.09,1.83,4.77,1,5.06C130.22,83.82,129.84,82.43,129.14,82.57Z"/><path class="cls-2" d="M103.22,106.61s.39-2.12.08-2.08S80.81,89.63,80.81,89.63"/><path class="cls-4" d="M139.33,147c.2,1.2.19,5.14.67,5.5,1.33,1,11.17,3.17,12.5,3.5s7.83,1,8.5-.83-3.33-4.83-5.33-5.67c-1.12-.47-6.33-4-7.17-5.17S139.17,146,139.33,147Z"/><path class="cls-4" d="M127.95,158.59c.06,1.21-.41,5.13,0,5.54,1.21,1.15,10.72,4.45,12,4.93s7.66,1.91,8.54.16-2.75-5.19-4.64-6.25c-1.06-.59-6.36-5.22-7-6.47S127.9,157.58,127.95,158.59Z"/><path class="cls-3" d="M103.83,91.83c0,.93-3.69-.28-6.19-.48a12.06,12.06,0,0,0-2.67,0c-1.26.17-2,.54-2,.77s.48.19,1.23.23a19.47,19.47,0,0,1,3.58.47c2,.51,4.81,1.52,4.3,2.7s-4.43-1.19-9.79-.54l-.26,0A39.83,39.83,0,0,0,78.83,99.5C76.35,100.78,71.2,105,65.37,108c-4,2.07-8.35,3.56-12.35,3.15-9.26-1-10.63-14.43-10.79-20.4,2.33-1.66,11.56-1.58,12.38.14a8.63,8.63,0,0,0,0,.88.4.4,0,0,0,0,.11c.2,2.33,1.06,4.44,3.95,4.23,4.24-.31,17.91-9.8,24.59-12s7.94-4.39,9.21-3.46c1,.75-1,2.52-2.77,3.78-.68.49,2.58-.26,6.1,0,4.66.35,8.27,2.61,8.08,3.31s-2.87-.15-5.59-.53A12.26,12.26,0,0,0,96.88,87c-2-.11-4.56.78-4.4,1.18s2,.3,4.56.48c.4,0,.83.06,1.27.11C101.61,89.15,103.83,90.93,103.83,91.83Z"/><path class="cls-2" d="M54.67,90.78c.36-2.72.18-12.71.18-14.89"/><path class="cls-2" d="M106.33,131.5l4.67,7.17a21.65,21.65,0,0,0,4,1.33c.33,0,3-1.67,2.5-2.33-.71-.94-6.5-9.67-6.5-9.67"/><line class="cls-2" x1="115" y1="140" x2="108.83" y2="130.5"/><path class="cls-3" d="M187.53,153.28c-.36,1.42-2.46,16.72-2.13,17.05s30.82-1.48,31-2-.66-15.74-2-15.58S187.69,152.62,187.53,153.28Z"/><path class="cls-3" d="M215.73,134.09c-1,1.29-27.87-1.64-28-2.79s4.59-19.84,5.9-19.68,27.87,3.77,27.71,4.75c-.1.6-.44,6.74-2.3,11.48A26.74,26.74,0,0,1,215.73,134.09Z"/><path class="cls-3" d="M190.81,108.84c1.37-.55,17.05,8,16.72,8.53S188.84,135.9,187,135.9s-9.35-2.79-12.13-4.26c-1.93-1-10.82-6.23-9.67-7.21s13.44-7.54,14.76-8.36S190,109.17,190.81,108.84Z"/><path class="cls-3" d="M190.91,111.83a101.91,101.91,0,0,1,10.39,5.87"/><path class="cls-3" d="M188.64,113.51c1.64.49,10.27,5.45,11.1,6"/><path class="cls-3" d="M186.37,115.36a50.64,50.64,0,0,1,5.25,3"/><path class="cls-3" d="M193.92,119.67a34.28,34.28,0,0,1,3.38,2"/><path class="cls-3" d="M183.93,117c2.13,1.15,9.43,5.88,10.51,6.56"/><path class="cls-3" d="M177.62,121.42c1.68.93,5.47,3.2,6.79,4"/><path class="cls-3" d="M187,127.14c1,.59,2.86,1.85,2.86,1.85"/><path class="cls-3" d="M174.43,123.69c2.52,2.27,13.26,7.62,13.26,7.62"/><path class="cls-8" d="M773.81,274c0,14.8-3.15,20.69-13.45,21h0a36.87,36.87,0,0,1-4.36-.14c-4.15-.35-67.64-5.7-143.69-12.07l-16.38-1.37-75.68-6.34-16-1.33c-82.61-6.9-155.16-12.93-161.39-13.32-12.53-.79-15.38-5.71-15.38-18.39,0-24-.16-184.7-.16-215a19.22,19.22,0,0,1,.77-5.68c2-6.41,7.66-9.63,17.46-8.75C358.72,13.81,736.15,45,750.77,46.21c16.29,1.38,23,7.63,23,20.73C773.75,78.43,773.81,258.62,773.81,274Z"/><path class="cls-3" d="M781.75,60.94c0,11.49-.57,192-.57,207.36,0,18.7-10.74,27.85-20.54,26.75l-.28,0c10.3-.33,13.45-6.22,13.45-21,0-15.38-.06-195.57-.06-207.06,0-13.1-6.69-19.35-23-20.73C736.15,45,358.72,13.81,345.59,12.63c-9.8-.88-15.51,2.34-17.46,8.75.84-6.23,11-16.07,22.91-15C364.17,7.56,744.15,39,758.77,40.21,775.06,41.59,781.75,47.84,781.75,60.94Z"/><path class="cls-3" d="M758.83,62.67c0,3.5-1.83,212.66-1.83,216,0,.25-14.73-.71-38.65-2.45.12-31,.71-168.07.71-180.63,0-1.18,0-2.28-.11-3.31-.67-8.86-4.45-12.34-15.8-13.54-10.63-1.13-297.66-27.08-308.24-27.66S382,55.27,381.71,63.17c0,.75,0,1.53,0,2.34V249.24C356,247,340,245.39,340,245c0-3.33-.32-215.23-.32-218.19C339.68,24.33,758.83,61.83,758.83,62.67Z"/><path class="cls-2" d="M769.77,53.62c.66-.41,7.86-6,7.86-6"/><path class="cls-8" d="M613.38,369.34c-2.93.58-131.13-12.55-129.39-13.27,10.75-4.46,20.27-27.93,20.3-82.3l16,1.33,75.68,6.34c0,.16,0,.33,0,.5,0,40.29,2.5,74,17.49,87.36C613.44,369.32,613.42,369.33,613.38,369.34Z"/><path class="cls-3" d="M613.38,369.34s.06,0,0,0c-15-13.33-17.49-47.07-17.49-87.36,0-.17,0-.34,0-.5l16.38,1.37c.65,33.63,4.06,61.22,17.36,72.33C630.62,355.94,616,369.54,613.38,369.34Z"/><path class="cls-7" d="M719.06,95.59c0,12.56-.59,149.68-.71,180.63-78.45-5.72-255.77-19.8-336.68-27V65.51c0-.81,0-1.59,0-2.34.32-7.9,2.61-12.67,13.2-12.09S692.52,77.61,703.15,78.74c11.35,1.2,15.13,4.68,15.8,13.54C719,93.31,719.06,94.41,719.06,95.59Z"/><path class="cls-9" d="M719,92.28c-35.26-2.92-296.33-25.84-337.24-29.11.32-7.9,2.61-12.67,13.2-12.09S692.52,77.61,703.15,78.74C714.5,79.94,718.28,83.42,719,92.28Z"/><circle class="cls-5" cx="705.67" cy="85.42" r="3.44" transform="translate(564.77 782.14) rotate(-85.47)"/><path class="cls-10" d="M543.33,247.33s-1.12,1.72-2.36,3.58c-1.68-2.45-8.1-13.77-9.07-22.15-1-9-.52-26.72.69-28.11.49-.55,1.9-2,3.33-3.58-1,8.29-.73,25.32.25,33.26A32.18,32.18,0,0,0,543.33,247.33Z"/><path class="cls-3" d="M484.76,114.12c0,1.89-2.52,8.7-5,9.78,1.88-1.63-4.65-12.5-5.85-11.93,0,0,6.18-2.63,7.25-2.94C481.69,108.86,484.76,113.27,484.76,114.12Z"/><path class="cls-1" d="M432.07,145.46c-.23.71,43.51,27,46.21,28.92,1.38,1-5.68,10.8-7,10.26-.92-.36-59.81-37.61-61.19-39.59-.32-.46-.59-3,.4-3.56,6.53-4,59.82-27.82,63.41-29.52,1.2-.57,7.73,10.3,5.85,11.93-.77.68-27.44,12.24-40.53,18.15A73.58,73.58,0,0,0,432.07,145.46Z"/><path class="cls-3" d="M478.28,174.38c-2.7-1.89-46.44-28.21-46.21-28.92a73.58,73.58,0,0,1,7.11-3.41c8.3,4.14,36.51,20.82,37.21,21.52S478.82,174.11,478.28,174.38Z"/><path class="cls-1" d="M528.17,197.06c-.78,1-10.46-4-10.48-5.12,0-1.35,36.29-88,37.4-89.75h0c.43-.64,10.69,4.49,11.15,5.21C567,108.62,529,196,528.17,197.06Z"/><path class="cls-3" d="M536.71,193.43c-.47.79-4.75,2.53-7,3.32-.82.28-1.42.42-1.5.31a8.84,8.84,0,0,1,.61-1.24c5-10.75,38.19-87.28,37.46-88.43-.46-.72-10.72-5.85-11.15-5.21-.21-.86,11.54-2.57,12.4-2.57s6.2,4.92,6.84,5.77S537.36,192.36,536.71,193.43Z"/><path class="cls-1" d="M684,168.81h0c-1.22,1-59,29.52-60.28,28.86s-7-12.34-6.34-13.34,41.34-18.79,41.67-19.45c.08-.16-2.15-1.46-5.63-3.38-11.34-6.26-35.93-19.06-36.7-19.83-1-1,6.18-13,7.33-12.67,4.38,1.38,59.56,36,60,36.7A11.56,11.56,0,0,1,684,168.81Z"/><path class="cls-10" d="M659,164.88c-.33.66-41,18.45-41.67,19.45-.11.2.14-.57.34-1,.81-1.73,3-5.55,3.58-6s23.48-11.74,32.12-15.88C656.85,163.42,659.08,164.72,659,164.88Z"/><path class="cls-10" d="M684,168.81a11.56,11.56,0,0,0,0-3.11c-.4-.68-55.58-35.32-60-36.7.38-.5,6-5.21,7.22-4.43s56.41,35.68,56.41,37.3C687.63,164.06,684.51,168.47,684,168.81Z"/><path class="cls-2" d="M566.24,107.39c1.34-.31,8.09-2,8.09-2"/><path class="cls-5" d="M549.22,383.65c-.83,12-1.53,21-1.64,21.61-.33,2-8.24,2.21-8.84.3S531,369,530.33,362.67c-.59-5.68.68-34.08,1.67-44.49,1.28.75,4.61,1.27,8.12,1.61.6,8.44,3.29,37.74,3.88,41.88C544.32,363.89,546.67,373.76,549.22,383.65Z"/><path class="cls-5" d="M564,356.33c0,3.35,2,44,.67,49-.26,1-6.74,2.64-8.75.83-.87-.79-3.91-11.66-6.7-22.51-2.55-9.89-4.9-19.76-5.22-22-.59-4.14-3.28-33.44-3.88-41.88,3.31.31,6.77.46,8.88.46,4.17,0,14.3-1.73,17.06-3C567,324.41,564,341,564,356.33Z"/><path class="cls-4" d="M539.34,405.76c-.14,1.5-1.21,9.75-1.91,9.95s-7.94,3.82-7.64,5.43,13.26,1.21,14.47.4,6.23-12.06,5.73-13.67c-.4-1.29-2.71-1.51-3.22-2.81C546.55,404.46,539.44,404.65,539.34,405.76Z"/><path class="cls-4" d="M556.5,406c-.14,1.53-1.47,9.55-1.94,10.13-.74.91-7.34,6.67-6.27,7.94s12-1.19,13.23-2,6.34-12.28,5.83-13.91c-.41-1.31-2.76-1.53-3.27-2.86C563.84,404.66,556.6,404.85,556.5,406Z"/><path class="cls-10" d="M551.13,240.63c.18,2-1.5,11-1,11.75.88,1.32,3.13,3.5,5,3s5.94-4.77,5.5-6.37c-.37-1.37-.37-10.62-1.12-10.12S551,239.25,551.13,240.63Z"/><path class="cls-10" d="M557,213.63c-2.25.47-7.12,7.13-8.12,8.25S543,225.5,543,226s3.13.88,2.88,1.75-3.62,13.77,6.5,14.38c8.38.5,10.13-6.37,10.38-7s7-3.37,7.13-5.75S559.38,213.13,557,213.63Z"/><path class="cls-4" d="M551.5,223.5c-1.75-.16-2.39,4.39-.87,4.5C552.38,228.13,552.88,223.63,551.5,223.5Z"/><path class="cls-11" d="M557.63,206.5a9.81,9.81,0,0,0-10.25,9.38,6,6,0,0,0,4.38,5.5c3.75.5,7.47-1.73,8-1.37.38.25,1,4.92,3,6.75,1.75,1.63,4.25.38,4.38,2.5.14,2.4-4.5,2.5-4.62,3.75-.19,1.87-.75,4.5-.25,4.13,2.88-2.12,10.52-.44,11.75-8,1-6.12-3.37-6.87-3.75-7.5-.09-.15,3.88-3.62.88-8.12-2.49-3.73-6.59-1.37-7.5-1.37C563.25,212.13,562.5,206.59,557.63,206.5Z"/><path class="cls-10" d="M530.86,260.16c-.87-1-10.76-18-11.8-24.64s-1.73-32.09-1.21-39,1-15.55,3-15.79c1.38-.17-.82,12.07.86,12.49.7.18.18-15.78,2.78-17,1.45-.67-.5,15.36.52,15.62.69.17,1-17.7,3.47-17.7s-.7,15.79.17,15.61,1.74-15.26,4.51-15.44c2.07-.13-1.76,13.14-1.67,18.18a2.55,2.55,0,0,0,.46,1.78c.49.41,1.75-.44,3.13-1.41,1.81-1.28,3.81-2.78,4.5-1.89s-1.46,3.73-3.6,6.12h0c-1.43,1.6-2.84,3-3.33,3.58-1.21,1.39-1.73,19.09-.69,28.11,1,8.38,7.39,19.7,9.07,22.15a4.47,4.47,0,0,0,.3.4C542.48,252.7,531.72,261.2,530.86,260.16Z"/><path class="cls-6" d="M566.75,316.75c-.06.15-.3.32-.69.5-2.76,1.27-12.89,3-17.06,3-2.11,0-5.57-.15-8.88-.46-3.51-.34-6.84-.86-8.12-1.61a1.29,1.29,0,0,1-.5-.43c-1-1.75,8.85-46.67,7.92-47.5-1.42-1.25-7.59-5.42-9.67-8.83-1.27-2.09,6.54-13.63,9.85-13.5.39,0,1.48,1.33,1.73,1.25s1.67-3.24,2.17-2.59c2.59,3.37,5.86,4.79,6.44,5.62s7.46,1.54,10.56-2.76c1.7-2.36,3.75,20.31,4.25,24.56S567.25,315.5,566.75,316.75Z"/><path class="cls-2" d="M541.58,249.42a61.82,61.82,0,0,0,10.92,7.33"/><path class="cls-2" d="M539.42,270.25c.92.75,10.16,7,16.17,3.75,5.58-3,3.83-9.08,3.83-9.08"/><path class="cls-2" d="M472.19,34c.32,1,3,1.83,5,.22"/><path class="cls-2" d="M622,46.78c.32,1,3,1.83,5,.22"/><path class="cls-2" d="M683,51.5c.32,1,3,1.83,5,.22"/><path class="cls-2" d="M406.9,28.42c.32,1,3,1.83,5,.22"/><path class="cls-11" d="M151.43,426.91c-.08,1.41-2.38,8-1.3,8.81,1.38,1,20,4.67,20.74,1.81.57-2.07-9.76-5.27-10.37-9.59C160.28,426.31,151.52,425.46,151.43,426.91Z"/><path class="cls-11" d="M196.63,425.38c-.08,1.41-1,7,.1,7.79s21.39,1.14,22-.92-11.87-5.5-13.12-7.75C204.82,423.05,196.71,423.92,196.63,425.38Z"/><path class="cls-7" d="M206.75,424.5c-.5,1.75-10.39,3.2-10.89,1.2s-4.75-37.73-5.16-41.86c-.28-2.83-6.7-24.59-7.2-23.34s-4.88,27.06-5.58,30.15c-1,4.53-15.66,36-16.91,37.53s-10.31,1.06-10-.68c.73-4.27,11-39.39,11.45-41.6.76-3.41.45-42.9.74-51.16a118.68,118.68,0,0,0,20.8,2.91,32.87,32.87,0,0,0,13.41-2.57c3,10.45,8.57,35.55,8.77,42.78C206.42,386.86,207.25,422.75,206.75,424.5Z"/><path class="cls-2" d="M183.4,360.72c.41-2.06,2-14.9,2.13-19.83"/><path class="cls-10" d="M196,252.88c0,.74-2.62,1-2.75,1.37a34.27,34.27,0,0,1-.94,3.66c-1.16,2.28-3.93,3.16-4.19,3.82a2.2,2.2,0,0,0-.09.21.08.08,0,0,0-.07,0c-.65.52-1.41,2-3.18,2-3.4,0-4.84-5.32-5.92-5.52-.06,0,0-.37,0-.54,0-1,1.84-5.66.67-6.5s-2.33-1-2.5-2,3.33-1.5,3.33-2.5a42.76,42.76,0,0,1,1.34-6c.28-1,9.17.86,12.79-.2.54,2.67.07,5.56.16,6.75C194.75,249,196,252.12,196,252.88Z"/><path class="cls-4" d="M189,247.75c-1.62,0-1.75,3.75-.12,3.75C190.13,251.5,190.5,247.75,189,247.75Z"/><path class="cls-6" d="M194.83,240.5l-.37.13c-3.62,1.06-12.51-.77-12.79.2a42.76,42.76,0,0,0-1.34,6c0,1-3.5,1.5-3.33,2.5s1.33,1.17,2.5,2-.67,5.5-.67,6.5c0,.17-.24.16-.28.13a16.73,16.73,0,0,0-5.88-4.29c-3.84-1.67-1-6.67-.84-8.17s-2.45-5.73-.16-9.17c1.66-2.5,4.83-3,5.5-3.33s5-7.17,13.83-4C197.66,231.39,196.79,239.72,194.83,240.5Z"/><path class="cls-1" d="M223.88,287.25c-.13,1.75-15.26,12.63-20.26,13.13-3.13.31-7-2.55-7.64-3.93-.28-.66.46,7.53,1.29,16.42-2.66.91-5.4,1.81-5.89,2.13l0,0a71.28,71.28,0,0,1,3.14,10.7,36.78,36.78,0,0,0,3.83-1.64c.49,5.38.85,9.48.79,9.8s-.68.72-1.72,1.2A32.87,32.87,0,0,1,184,337.65a118.68,118.68,0,0,1-20.8-2.91,5.56,5.56,0,0,1-1.23-.43c-1.18-.79-.39-10.42-.59-11.41s-5.37-6.9-4.72-20.06c.55-11.21,11.33-34.18,13.6-37.72a17.87,17.87,0,0,1,8.43-6.73c1.1-.44,2.51,5.5,6.1,5.5,1.77,0,2.53-1.43,3.18-2a.08.08,0,0,1,.07,0c.56.21,2.44,2.77,3.1,4.54.6,1.57,9.29,14.4,11,19.52.46,1.35,11.83-8,15.45-10.38a.63.63,0,0,1,.65,0c1.89.73,5,7.8,5.52,10.75A4.21,4.21,0,0,1,223.88,287.25Z"/><path class="cls-2" d="M202.33,286v2.5"/><path class="cls-2" d="M175.33,288.83s-6.5,15.34-2.33,21.5,16.67,4.17,17.67,3.84c.18-.06.42.27.69.85"/><path class="cls-2" d="M194.5,325.72a6.57,6.57,0,0,1,.17.95c0,.83-7.67,3.83-15.84,3.66s-14.53-3.23-17.33-7.16"/><path class="cls-2" d="M196,296.65c-.23-1.71-3.27-24.22-5-30.54"/><path class="cls-3" d="M219.5,320c-2.36.34-13.42.79-14.92,1.42-.78.32-3.82,1.49-6.25,2.66a36.78,36.78,0,0,1-3.83,1.64,71.28,71.28,0,0,0-3.14-10.7l0,0c.49-.32,3.23-1.22,5.89-2.13,1.87-.64,3.72-1.29,4.73-1.75,4.31-1.94,6-4.25,7.55-5.66a4.63,4.63,0,0,1,3.51-1.47c1,.12-.59,2.27.36,2.31a2.63,2.63,0,0,0,2.75-1c.07-.07.33-1.37.75-1.67.83-.59,4.18-1.29,4.81.41.44,1.21-.82,2.6-.77,2.74s2.38-.26,3.12,1.34c.66,1.42-2.05,2.84-1.92,3,.33.41,2.34.21,2.58,1.5.29,1.58-1.76,2.51-1.75,2.67s1.6-.16,1.83,1.25C225.13,318.27,222.42,319.58,219.5,320Z"/><path class="cls-3" d="M245,270.76c-.16,1.26-4.63,6.74-8.89,7.49-1.39.24-9.09,5.88-12.33,8.1-.56-3-3.63-10-5.52-10.75.72-.72,8-6.22,9.72-8.07.61-.66.17-4.14,2.79-5.15,4.54-1.75,5.76-5.32,6.11-2.88s-4.51,6.58-2.62,5.41c3.23-2,6.64-4.33,7.77-2.88.87,1.12-1,2.85-1,3.35s2.34-1.07,3.14.4-2.14,4-1.76,4.22S245.27,268.88,245,270.76Z"/><path class="cls-2" d="M237.46,275.81c1,1.15,8.56-4.31,7.26-5.66C243.06,268.43,235.93,274,237.46,275.81Z"/><path class="cls-2" d="M235.74,271.9c-1.68-.67,6.43-8.27,8-6.43S237.65,272.66,235.74,271.9Z"/><path class="cls-2" d="M234,268.17c-1.68-.67,6.16-8,7.69-6.19S235.91,268.93,234,268.17Z"/><path class="cls-2" d="M220.9,306.8a5.61,5.61,0,0,1-2.87,1.66"/><path class="cls-2" d="M222.17,311.08a24.46,24.46,0,0,1-2.93,1.2"/><path class="cls-2" d="M223,315.17a9.93,9.93,0,0,1-3.17.83"/><path class="cls-2" d="M473.86,112c0-27.39,2-79.3,1.14-79-3.39,1.24-234.34,225.1-238.67,230s-22.91,43.25-22.91,43.25"/><path class="cls-2" d="M211,321v27.27"/><line class="cls-2" x1="215.35" y1="321.01" x2="215.35" y2="361.14"/><line class="cls-2" x1="212.12" y1="321.14" x2="212.12" y2="353.79"/><line class="cls-2" x1="213.64" y1="321.14" x2="213.64" y2="339.37"/><path class="cls-2" d="M409.9,142.39c0-27.39,1.47-116,.56-115.71-3.39,1.24-171.36,231.63-175.69,236.58l-19.56,42.66"/><path class="cls-3" d="M216.25,305.25c.42-.08,3.08-.92,3.08-.92"/><path class="cls-3" d="M749.77,282a15.24,15.24,0,0,1-4.77,2.29c-1.6.36-4.66-.7-5.13-.37-.09-2.47-.3-5.67-.41-7.5,3.26.5,6.56-.56,9-1.54V275A29.29,29.29,0,0,0,749.77,282Z"/><path class="cls-2" d="M753.67,268.83c-1.34.84-2.5.17-3.34,1s-1.78,4-1.83,5.09c-2.48,1-5.78,2-9,1.54a9.65,9.65,0,0,1-5.12-2.46c-5.81-5.25,1.27-13.61,1.74-14.08s-2.21-3.48-1.9-4.27,4.59.63,5.07.16,1.73-1.75,2.94-3.09c3.12,2.37,11.24,7.28,11,8-.34.83-1.34,3.33-1,3.83S755,268,753.67,268.83Z"/><path class="cls-4" d="M744.94,257.39c-1.84-2.11-4.11,1.9-2.69,3.16S746,258.65,744.94,257.39Z"/><path class="cls-1" d="M743,401.87c0,.35-.08.71-.13,1.06-1.71,13.45-3.13,27.5-3.92,33.86a25.49,25.49,0,0,1-.55,3.45c-.94,1.87-22.77,6.35-24.45,2.43-.52-1.21,1.56-3,4.32-4.67,4.3-2.69,10.27-5.32,10.61-5.78.56-.75-1.12-28-1.3-31.35-.15-2.69-.42-18.43-.52-25.35a126.65,126.65,0,0,0,13.55.66C741.32,383.13,742.32,394.72,743,401.87Z"/><path class="cls-6" d="M739,436.79a25.49,25.49,0,0,1-.55,3.45c-.94,1.87-22.77,6.35-24.45,2.43-.52-1.21,1.56-3,4.32-4.67a14.56,14.56,0,0,0,8,1.5C729.73,439.22,736,437.4,739,436.79Z"/><path class="cls-1" d="M763,374.87c-.55,8.92-3.75,30.3-3.75,31.79s-.12,25.54-.46,35.52c-4,2-13.23,7.68-16.7,7.39a4.07,4.07,0,0,1-3.09-1.68c3.14-3.75,7.42-7.59,7.75-8,.56-.75-2.61-28.36-3.17-32.09-.12-.82-.34-3-.62-5.91-.68-7.15-1.68-18.74-2.39-25.69,2.79,0,5.08,0,5.89,0C749.65,376.06,757.61,375.56,763,374.87Z"/><path class="cls-11" d="M768.13,275.59c-1.6,5.38-5.35,10.5-9.87,12.74a4.26,4.26,0,0,1-3.59.34c-2.48-1-4-3.82-4.9-6.63a29.29,29.29,0,0,1-1.27-7v-.08c0-1.08,1-4.27,1.83-5.09s2-.16,3.34-1-1.17-3.83-1.5-4.33.66-3,1-3.83c.26-.67-7.86-5.58-11-8-.82-.62-1.29-1.07-1.19-1.22,4.5-6.67,15.09-6,21.5-.83C770.12,256.82,769.86,269.79,768.13,275.59Z"/><path class="cls-7" d="M764.67,308.67c0,.22-.26.45-.76.68-.14-.56-.28-.87-.41-.85-1,.16-12.17,2.5-11.67,3.83.43,1.14,3.46,13.55,0,15-4.91,2.06-16.31-.7-20.13-1.84l-.53-.16-.63-.2c.5-4.05,1-7.87,1.39-11.22.81-6.41,1.45-11.14,1.74-12.58,1.33-6.66,5.5-16.16,6.16-17.33a.08.08,0,0,1,0,0c.47-.33,3.53.73,5.13.37a15.24,15.24,0,0,0,4.77-2.29c.91,2.81,2.42,5.62,4.9,6.63a4.26,4.26,0,0,0,3.59-.34c.15.23.29.45.41.67C761.83,294.67,764.39,307,764.67,308.67Z"/><path class="cls-7" d="M768.5,373.5c.06.49-2.26,1-5.46,1.37a203.79,203.79,0,0,1-22.43,1.31c-4.56-.13-10.47-.21-13.55-.66-1.25-.18-2-.4-2.06-.69-.09-1,2-19.78,4.17-38.18,6.7,2.32,14.56,4.59,20,4.68,6.18.1,10.2-1.46,12.71-3.93C764.91,354.14,768.41,372.77,768.5,373.5Z"/><path class="cls-3" d="M765,331.67a11.73,11.73,0,0,1-3.12,5.73c-2.51,2.47-6.53,4-12.71,3.93-5.44-.09-13.3-2.36-20-4.68-6.9-2.38-12.58-4.81-13.17-5-1.17-.34-8.67,0-9-1.34s2.23-1.34,2.62-2.24c.24-.57-3.45-.92-3.45-2.09s2.78-1.32,3.28-1.82-3.28-1.68-2.78-3,3.26-.24,3.93-.57-3.1-1.77-2.43-3.27,6.45,3.29,8,2.86c.51-.14-3.71-4-2.54-4.66s6.43,5,7.26,6,6.37,2.61,9.68,3.64l.63.2.53.16c3.82,1.14,15.22,3.9,20.13,1.84,3.46-1.45.43-13.86,0-15-.5-1.33,10.67-3.67,11.67-3.83.13,0,.27.29.41.85C764.84,313.1,765.85,328.15,765,331.67Z"/><path class="cls-2" d="M751.83,312.33c-.33-.5-2.33-7.33-2.33-7.33"/><path class="cls-3" d="M731.93,313.91c-.42,3.35-.89,7.17-1.39,11.22-3.31-1-8.89-2.7-9.68-3.64s-6.1-6.63-7.26-6,3.05,4.52,2.54,4.66c-1.52.43-7.31-4.36-8-2.86s3.09,2.93,2.43,3.27-3.43-.77-3.93.57,3.28,2.51,2.78,3-3.28.65-3.28,1.82,3.38,2.07,3.25,2.06c-1.06-.08-4.63-.14-5.36-1.69-.6-1.28,2-.91,2.15-1.59.07-.26-2.52-1-2.24-2.2.19-.83,1.53-.5,2-.83s-1.88-1.52-1.38-2.69,2-.19,2.4-.65-.32-1,.23-2.16,2.59.49,4.25.13.08-2.69,1.5-2.75c2.38-.1,3,2.63,6.15,2.92,3.67.35,11.38-1.48,12.68-2.72Z"/><path class="cls-12" d="M624,129c0-3,.13-88.2,1.28-83.88,1.21,4.52,85.86,273.12,85.86,273.12"/><path class="cls-12" d="M684,165.7s0-119.33,1-115.45c.9,3.62,27.6,268.71,27.6,268.71"/><line class="cls-12" x1="711.37" y1="331.62" x2="711.37" y2="380.61"/><line class="cls-12" x1="712.92" y1="331.74" x2="712.92" y2="367.11"/><path class="cls-6" d="M758.83,442.18a32.89,32.89,0,0,1-.28,4.22c-.46,1.53-20.61,11.25-22.58,8.21-.86-1.33.81-4,3.07-6.72a4.07,4.07,0,0,0,3.09,1.68C745.6,449.86,754.82,444.53,758.83,442.18Z"/><path class="cls-3" d="M480,414.83c-.75.57-28.83,20.34-29.83,20s-7.26-11.49-11.34-13.33-8.11-1.34-11-.84c-1.74.3-3.09.59-3.84.34a5.33,5.33,0,0,1-1.77-1.76c-1.93-2.55-4.65-7-7.56-8.07-5.17-1.84-12.91-1.89-12.67-2.84a15.41,15.41,0,0,1,2.5-4.5c1-.83,23.33-17,24.33-17s9.92-2,16.67,1.5c4.5,2.34,5.17,9.17,5.5,9.34.67.33,10.17-2.34,18.5.66,7.4,2.67,9.17,11.5,9.33,12S480.67,414.33,480,414.83Z"/><path class="cls-2" d="M478.83,410.33s-26.17,17.83-27,17.83-3.5-9.33-9.83-12.67-15.67,0-15.67,0c-.83-.67-2-6.48-8.33-9.17a34.4,34.4,0,0,0-13.5-2.5"/><path class="cls-2" d="M451,397.67c-11.83,5.33-24.67,17.83-24.67,17.83"/><line class="cls-2" x1="451.83" y1="428.17" x2="450.17" y2="434.83"/><path class="cls-2" d="M428.17,420a5.07,5.07,0,0,1-.33.66c-1.74.3-3.09.59-3.84.34a5.33,5.33,0,0,1-1.77-1.76c1.15-1.76,3.7-3.86,4.27-3.74C427.33,415.67,428.48,419.23,428.17,420Z"/><path class="cls-8" d="M414.5,400.33a26.16,26.16,0,0,1,7.52,2,22,22,0,0,1,6.53,4.9c.37.47,11-7.66,10.71-8.16a18.86,18.86,0,0,0-7.24-5c-3-1.06-7-1.33-7.75-.92C424.08,393.22,414.16,400.37,414.5,400.33Z"/><path class="cls-2" d="M429.36,390.06c2.75-.2,8.88-.61,12.65,4.8"/><path class="cls-2" d="M437.5,410.88c.38,0,10.13-2.62,15.5,9.13"/><path class="cls-2" d="M442,407.38c.38,0,10.13-2.62,15.5,9.13"/><path class="cls-2" d="M451.75,400.38c.38,0,12.13-2.75,17.13,8.38"/><path class="cls-2" d="M447.5,403.75c1.38-.5,5.75.25,6.63,1.25"/><path class="cls-2" d="M458.75,407a9.18,9.18,0,0,1,4.63,5.25"/><path class="cls-7" d="M288.82,314.61c0,1.83,12.44,43.8,13.22,44.84s30.84,23.85,31.88,24.1,60.39-26.13,60.65-26.91S365,334.88,365,333.84s-11.3-41.94-12.18-43C352.67,290.6,288.82,312.28,288.82,314.61Z"/><line class="cls-2" x1="302.04" y1="359.45" x2="365.03" y2="333.84"/><path class="cls-3" d="M294.44,317.07c.39,1.78,10.37,35.29,11,35.29s53.82-20.51,54.71-21.18-8.82-35.51-9.49-34.85S294,315.09,294.44,317.07Z"/><path class="cls-8" d="M310.55,360.09c.79.59,15.18,12,16.06,11.59s53.3-21.5,52.88-22.17c-.82-1.31-14.62-11.66-15.6-11.33S309.66,359.43,310.55,360.09Z"/><path class="cls-5" d="M313.31,348.86c-.48-1.44-7.88-23-8.94-27.6-.25-1.07,40.37-16.32,40.37-15.44s8.82,27.79,8.82,27.79S313.53,349.54,313.31,348.86Z"/><path class="cls-2" d="M305.92,325.38c.66-.33,39.74-15.6,39.74-15.6"/><path class="cls-2" d="M347.79,317.49s-16.92,6.4-16.92,7.39,2.63,8.87,3.28,8.87,16.92-7.39,16.92-7.39"/><path class="cls-4" d="M348,365.94c-1,.58,4.6,6.4,6.08,5.91s14.45-6.24,15.27-6.73-4.93-6.24-6.57-5.58C359.94,360.66,350.59,364.46,348,365.94Z"/></g></g></svg>