<svg id="Web_Design" data-name="Web Design" xmlns="http://www.w3.org/2000/svg" viewBox="0 0 802 460"><defs><style>.cls-1,.cls-10{fill:#4c9dd6;}.cls-1,.cls-10,.cls-11,.cls-2,.cls-3,.cls-4,.cls-5,.cls-6,.cls-7,.cls-8{stroke:#313537;stroke-miterlimit:10;}.cls-2{fill:#fff;}.cls-10,.cls-11,.cls-2,.cls-4,.cls-5,.cls-6,.cls-8{stroke-linecap:round;}.cls-11,.cls-3{fill:#de6788;}.cls-4{fill:#8fd6bd;}.cls-5{fill:#eeb539;}.cls-6,.cls-7{fill:none;}.cls-8,.cls-9{fill:#313537;}</style></defs><title>Artboard 3</title><g id="big"><path class="cls-1" d="M76.5,128c-1.5,1-18,34.5-15,35.5s49.5,2,50-1S76.5,128,76.5,128Z"/><path class="cls-2" d="M719.85,40.37v211c0,7.31,0,15.53-11,15.53H293.21c-10.05,0-12.79-1.82-12.79-10V37.63a13.29,13.29,0,0,1,.61-4.09c1.79-5.64,7.43-8.7,14.92-8.7h410.2c9.1,0,12.3,5.37,13.29,10.76,0,0,0,0,0,0A26.09,26.09,0,0,1,719.85,40.37Z"/><path class="cls-3" d="M719.44,35.6c-1-5.39-4.19-10.76-13.29-10.76H296c-7.49,0-13.13,3.06-14.92,8.7-.05,0-.08,0-.08,0,0-1.88,2.83-14.14,24.14-14.14H700.64C710.88,19.35,718.92,27.15,719.44,35.6Z"/><rect class="cls-4" x="293" y="36.85" width="413.97" height="218.32"/><path class="cls-4" d="M562.93,353.59c-.51.51-125.66,1.36-125.32,0s15.62-18,15.62-39V266.93h95.43v48.29C548.66,336.27,563.44,353.08,562.93,353.59Z"/><path class="cls-1" d="M666,112c-1.25,1.25-217.5,1.42-217.5,0V56.5C448.5,55,635,56,637,56s28.25,11.25,29,12a.19.19,0,0,1,0,.08C666.77,70.21,667.23,110.77,666,112Z"/><path class="cls-2" d="M661.75,72c-1.41,3.18.5,6.75,0,6.75C660.48,78.75,637.5,58,637,56c2,0,28.25,11.25,29,12a.19.19,0,0,1,0,.08A7.42,7.42,0,0,0,661.75,72Z"/><path class="cls-1" d="M568,131V233.5c0,2,97.75.75,98.5,0s1.5-103,0-103S568,130,568,131Z"/><path class="cls-2" d="M448.67,131V233.5c0,2,97.75.75,98.5,0s1.5-103,0-103S448.67,129.5,448.67,131Z"/><path class="cls-5" d="M315.58,55.68c1,1.69-7.12,19.9-12.78,28.5-3.89,5.92-13.76,18.67-14.74,18.67S227.38,69.44,228.61,68,238,49.52,240.4,46.1c4.67-6.63,14.49-24.32,14.49-24.32S312.87,51.26,315.58,55.68Z"/><path class="cls-6" d="M276.51,46.1c-1,1.19-9.34,15.48-8.84,15.72,1.77.89,27.76,18.18,28.74,17s9.09-14.49,8.6-16S277.74,44.63,276.51,46.1Z"/><path class="cls-6" d="M248.75,50c1.23-.74,13.34-12,14.49-11.06.61.48,0,18.67,0,18.67"/><line class="cls-6" x1="263" y1="50.03" x2="254.89" y2="45.36"/><path class="cls-2" d="M286.61,45.68S277.38,42,277.81,41s8.16-14.6,8.8-14.17,9.44,4.08,9,5.37S287.68,45.68,286.61,45.68Z"/><path class="cls-6" d="M245.18,54.48c-.64.86-8.16,12-6.87,12.88s12,6.87,12,6.87,7.94-11.38,7.3-12S245.18,54.48,245.18,54.48Z"/><path class="cls-6" d="M263.64,66.51c-.53.8-7.08,10.52-6.65,11.38s10.09,7.08,10.95,6.44,7.94-11.81,7.3-12.24S264.07,65.86,263.64,66.51Z"/><path class="cls-6" d="M281.46,76.38c-.43.64-6.65,11.81-6.23,12.24,1,1,10.3,6.44,10.73,6s7.51-11.16,6.65-11.38S281.58,76.2,281.46,76.38Z"/><path class="cls-2" d="M392.66,368c-.85.65-33,23.41-34,22.78-7.6-4.63-10.74-13.95-15.39-16s-6.77-.67-10.05-.1c-2,.34-3.52.67-4.37.39-.52-.17-1-1.17-2-2-4.31-3.47-4.46-7.88-7.94-8.4-6.85-1-14.53,2.33-16.34-1-.12-.23,2.85-6.48,2.59-6-.66,1.32,28.17-22,29.21-21.51,5.81,2.58,12.65-3.49,20.34.5,5.13,2.67,4.54,11.65,4.92,11.85.76.38,7.38-6.19,16.87-2.77,8.43,3,7.26,11.67,14.83,17.19C391.81,363.18,393.42,367.38,392.66,368Z"/><path class="cls-2" d="M391.33,362.83s-31.1,23.43-32,23c-7.68-3.79-7.57-13.06-14.79-16.86a12.68,12.68,0,0,0-13.27,1c-.87,0-2.09-7.24-9.3-10.3-7.59-3.23-12.71,2.08-16.86-1.82"/><path class="cls-2" d="M359.63,348.4c-11.8,6.67-28.63,21.22-28.63,21.22"/><line class="cls-2" x1="359.64" y1="385.58" x2="358.68" y2="390.74"/><path class="cls-2" d="M333.62,373.84c.1.28-.24.52-.38.75-2,.34-3.52.67-4.37.39a6.07,6.07,0,0,1-2-2c1.31-2,3.71-3.38,4.36-3.25C332.16,369.92,333.28,372.88,333.62,373.84Z"/><path class="cls-6" d="M329.91,346.06c.65-.22,16.5-7.93,17.26-7.6s-5,13.57-5,13.57"/><path class="cls-6" d="M321.23,350.29c1.19,1.09,7.06-.54,10.42,1.3s4,3.91,4,3.91"/><path class="cls-6" d="M316.12,354c1.3.76,6.95-.43,9.88,1.41a14.25,14.25,0,0,1,4.23,3.91"/><path class="cls-6" d="M337.95,342.69c.54.22,6.84,2.39,6.84,2.39"/><path class="cls-6" d="M364.33,355.51c2.5,1.09,6.3,5.1,6.62,4.78s4.34-10.32,3.91-10.1S363.91,355.32,364.33,355.51Z"/><path class="cls-6" d="M360.32,359.09a13.51,13.51,0,0,1,6,4.13"/><path class="cls-6" d="M364.44,373.86c.11.43,1.3,4.13,3,6"/><path class="cls-6" d="M342,361.15a10.37,10.37,0,0,1,7.49.22"/><path class="cls-5" d="M720.47,399a17.74,17.74,0,0,1-7.86,2.29c-1.58-1.31-5-4.18-8.3-6.88a4.67,4.67,0,0,0,1.69,0,27.81,27.81,0,0,0,6.36-2.94l8.14,7.39A.11.11,0,0,1,720.47,399Z"/><path class="cls-5" d="M704.31,394.37c-3-.33-7.72-2.22-12-.7a5.59,5.59,0,0,0-1.54.89c-2.79-2.32-5.35-4.45-6.67-5.58a5.14,5.14,0,0,1,1.21-.65c4.5-1.59,9.49.6,12.48.75h0C699.16,390.13,701.68,392.19,704.31,394.37Z"/><path class="cls-1" d="M712.36,391.39a27.81,27.81,0,0,1-6.36,2.94,4.67,4.67,0,0,1-1.69,0c-2.63-2.18-5.15-4.24-6.49-5.29A3.7,3.7,0,0,0,699,389a29.52,29.52,0,0,0,7-3.33Z"/><path class="cls-5" d="M681.91,412.37c-3.16,2.34-5.72,8-7.81,10.59l-7.19-5c1.12-1.28,4.49-8.29,7.22-11.27Z"/><path class="cls-4" d="M712.61,401.25c-3.78.27-7-.38-9.53,1-.63.34-1.24.69-1.81,1.07l-10.48-8.74a5.59,5.59,0,0,1,1.54-.89c4.26-1.52,9,.37,12,.7C707.58,397.07,711,399.94,712.61,401.25Z"/><path class="cls-2" d="M720.42,403.35c-5,3.54-10.82,1.34-15.48,2.61-3.11.85-8.24,7.58-10.06,9s-7.65-1.12-10.26.56c-4.85,3.12-6.15,10.07-9.57,12.56a24.92,24.92,0,0,1-9.8,3.65c-1.14,0-37-26.45-37.64-27.37s-.23-4.13.14-4.5c.64-.64,4.37-1.93,6.88-5.08,1.4-1.75,4.78-9,9.56-11.44,5.56-2.78,14-.41,14-.41S663,374.54,669,372s12.21,2,15.66,1.67a10.62,10.62,0,0,0,5.26-1.77c.36-.22,8.36,6.81,16.11,13.74a29.52,29.52,0,0,1-7,3.33,3.7,3.7,0,0,1-1.18.08h0c-3-.15-8-2.34-12.48-.75a5.14,5.14,0,0,0-1.21.65c-3.16,2.18-6.54,8-7.22,8.93l-.07.09c-.5.5-4.33-1-8.83,2.5a7.48,7.48,0,0,0-1,.93c-2.77,3.11-6.16,10.2-7.2,11.24l-.18.16a26.08,26.08,0,0,1-8.44,4.41l7.13,5.29,7.07,5.25a22.42,22.42,0,0,0,7.84-3.92,6.24,6.24,0,0,0,.85-.9c2.09-2.6,4.65-8.25,7.81-10.59a5.41,5.41,0,0,1,.66-.44c3.91-2.24,10.25-.75,10.63-.93a33.67,33.67,0,0,1,8.07-7.7c.57-.38,1.18-.73,1.81-1.07,2.57-1.36,5.75-.71,9.53-1a18.19,18.19,0,0,0,6.3-1.5c.33-.15.67-.31,1-.49l.53-.29a.11.11,0,0,1,.17.1C720.67,399.9,720.83,403.06,720.42,403.35Z"/><path class="cls-1" d="M701.27,403.3a33.67,33.67,0,0,0-8.07,7.7l-9.47-7.61.1-.06c.43-.43,3.75-6.32,7-8.77Z"/><path class="cls-4" d="M693.2,411c-.38.18-6.72-1.31-10.63.93a5.41,5.41,0,0,0-.66.44l-7.78-5.72a8.06,8.06,0,0,1,.87-.82c4.26-3.32,7.92-2.15,8.72-2.44h0Z"/><path class="cls-3" d="M674.1,423a6.24,6.24,0,0,1-.85.9,22.42,22.42,0,0,1-7.84,3.92l-7.07-5.25c2.8-.85,6.9-2.94,8.49-4.53l.08-.08Z"/><line class="cls-6" x1="651.21" y1="417.24" x2="627.75" y2="399.81"/><path class="cls-4" d="M674.13,406.65c-2.73,3-6.1,10-7.22,11.27l-7.26-5.09.18-.16c1-1,4.43-8.13,7.2-11.24Z"/><line class="cls-6" x1="665.41" y1="427.78" x2="665.25" y2="431.68"/><polyline class="cls-6" points="693.61 415.11 693.2 411 696.12 413.47"/><line class="cls-6" x1="676.9" y1="397.91" x2="658.18" y2="382.88"/><path class="cls-3" d="M690.79,394.56c-3.21,2.45-6.53,8.34-7,8.77l-.1.06h0l-6.82-5.48c.68-.89,4.06-6.75,7.22-8.93C685.44,390.11,688,392.24,690.79,394.56Z"/><path class="cls-1" d="M683.72,403.39c-.8.29-4.46-.88-8.72,2.44a8.06,8.06,0,0,0-.87.82l-7.1-5.22a7.48,7.48,0,0,1,1-.93c4.5-3.5,8.33-2,8.83-2.5l.07-.09Z"/><path class="cls-5" d="M666.91,417.92l-.08.08c-1.59,1.59-5.69,3.68-8.49,4.53l-7.13-5.29a26.08,26.08,0,0,0,8.44-4.41Z"/><path class="cls-6" d="M676.33,388.83c1.17-1.5,4.17-4.5,7.83-5.17,1.83-.33,8.17,1,10-.67"/><path class="cls-6" d="M671.17,383.67c1.17-1.5,4.17-4.5,7.83-5.17,1.83-.33,8.17,1,10-.67"/><path class="cls-6" d="M652.5,408.17c9-4.67,6.17-12.33,13-13.83"/><path class="cls-6" d="M646.83,403.67c9-4.67,6.17-12.33,13-13.83"/><path class="cls-6" d="M641.33,399c9-4.67,5.33-10.5,12.17-12"/><path class="cls-5" d="M609.67,337.75c7.62,0,12.34,4.29,12.34,5.69s.75,24.47,0,25.22-24.36.54-24.9,0,0-23.08,0-24.15S599.25,337.75,609.67,337.75Z"/><path class="cls-1" d="M616.49,355.33c-3.1.13-2.83-7.2-2.75-7.94,0,0,0,0-.11,0a25.17,25.17,0,0,1-4.21.34,27.55,27.55,0,0,1-8.64-1.11,11.71,11.71,0,0,1,9-4.43c4.84-.17,7.66,2,8.72,3.7A3.24,3.24,0,0,1,619,347C619.16,347.88,619.4,355.21,616.49,355.33Z"/><path class="cls-7" d="M622,343.44a10.51,10.51,0,0,1-3.47,2.47,18.34,18.34,0,0,1-4.8,1.48l-.11,0"/><path class="cls-7" d="M597.08,344.25s.62,1.36,3.7,2.39"/><path class="cls-5" d="M556.81,372.38c7.09,0,11.49,4,11.49,5.29s.7,22.77,0,23.47-22.67.5-23.17,0,0-21.48,0-22.47S547.12,372.38,556.81,372.38Z"/><path class="cls-2" d="M565.07,380a16.94,16.94,0,0,1-4.47,1.37l-.1,0c-.55.1.61,6.9-1.48,7.1-2.6.25-2.29-6.8-2.44-6.78s.66,9.64-2,10c-3.66.44-1.75-10.13-2.46-10.22a19.07,19.07,0,0,1-3.57-.77,10.9,10.9,0,0,1,8.41-4.13C561.46,376.36,564.08,378.37,565.07,380Z"/><path class="cls-7" d="M545.1,378.42s.58,1.27,3.44,2.22"/><path class="cls-7" d="M552.11,381.42a36.81,36.81,0,0,0,8.39-.06l.1,0a16.94,16.94,0,0,0,4.47-1.37,9.82,9.82,0,0,0,3.23-2.3"/><path class="cls-1" d="M525.29,373.62c-.29,1.14-33.49,30.91-33.49,30.91s-53-2.58-53.52-3.43,0-12,0-12.31c0-.09.15-.3.42-.6l54.24,5.18,7.73-8.88-54.38-4c.29-.58.29-9.73.29-10.88L501.25,373l6.29-9.74s-42.81-2.23-54-2.94c.14-2.53.52-9.4.52-10.79a2.5,2.5,0,0,1,.32-.68c10.59.69,53,2.91,53.77,2.39s10.62-16.94,15.92-25.76c0-.07.12,0,.13.06C524.32,331.21,525.56,372.55,525.29,373.62Z"/><path class="cls-3" d="M524.15,325.33c-5.27,8.77-15.41,25.54-16,26s-43.18-1.7-53.77-2.39c2.25-4,15.76-23.75,16.28-24.8s53.52.86,53.52.86S524.14,325.09,524.15,325.33Z"/><path class="cls-3" d="M507.54,363.31,501.25,373l-54.67-3.44,0-.06c.44-.78,6.84-8.24,6.84-8.24s0-.35,0-.94C464.73,361.08,507.54,363.31,507.54,363.31Z"/><path class="cls-3" d="M500.67,384.49l-.13.16-7.59,8.72-54.24-5.18c1.56-1.77,7-6.6,7.59-7.7l54.11,4Z"/><line class="cls-6" x1="508.11" y1="351.29" x2="507.54" y2="363.31"/><line class="cls-6" x1="501.25" y1="373.05" x2="500.67" y2="384.49"/><line class="cls-6" x1="492.94" y1="393.37" x2="491.8" y2="404.53"/><path class="cls-5" d="M255.52,428.44c-.41.82-6.84.68-14.28.25-9.9-.58-21.58-1.67-23.28-1.67a1,1,0,0,1-.23,0c-6.36-1.53-125.11-47.1-167.82-64.69-8.23-3.39-13.64-5.74-14.88-6.54-4.71-3,.73-23.21,12.61-19.65,2.17.65,6.59,2.22,12.67,4.48,42.8,15.85,167.91,65.51,171,67.07,1.76.88,7.79,5.73,13.39,10.52S255.76,428,255.52,428.44Z"/><path class="cls-3" d="M60.31,340.58c-2.5,1.12-7.71,3.5-8.8,4.23-1.46,1-3.39,6.76-3.39,7.73a61.28,61.28,0,0,0,1.79,9.75c-8.23-3.39-13.64-5.74-14.88-6.54-4.71-3,.73-23.21,12.61-19.65C49.81,336.75,54.23,338.32,60.31,340.58Z"/><path class="cls-2" d="M255.52,428.44c-.41.82-6.84.68-14.28.25-9.9-.58-21.58-1.67-23.28-1.67a1,1,0,0,1-.23,0,50.94,50.94,0,0,1-1.85-9.66c0-1,3.38-9.18,3.38-9.18l12.09-.49c1.76.88,7.79,5.73,13.39,10.52S255.76,428,255.52,428.44Z"/><path class="cls-8" d="M255.52,428.44c-.41.82-6.84.68-14.28.25a8.88,8.88,0,0,1,.74-8,6,6,0,0,1,2.76-2.54C250.48,423.09,255.76,428,255.52,428.44Z"/><line class="cls-6" x1="48.12" y1="352.54" x2="215.88" y2="417.32"/><line class="cls-6" x1="51.51" y1="344.81" x2="219.26" y2="408.14"/><path class="cls-9" d="M495.15,337c.09,1.35-.61,4-.15,6.44.24,1.25,5.18,1.62,6.89.31,1.32-1,9.17-11.86,6.42-12.61S495.15,337,495.15,337Z"/><path class="cls-9" d="M477,334.9c.09,1.35-.62,5-.14,6.73.35,1.23,4.81,1.41,6.56.16s9.64-11.24,6.89-12S477,334.9,477,334.9Z"/><path class="cls-2" d="M487.06,283.94c-.12,6.36-.35,16.34-.6,19.53s-2.63,28.38-2.63,30.17-6.27,2.47-6.49,1.41c-.29-1.46-1.23-27.89-1.4-32.28-.09-2.19-1.89-13.55-2.93-20.46C477.4,283,483.76,283.74,487.06,283.94Z"/><path class="cls-2" d="M505.23,303.82c0,1.8-3.51,28.27-3.16,31.75.18,1.73-6.3,3.38-6.66,1.58s-1.23-31.18-1.23-33c0-1.35-2.25-12.49-3.58-20.23,4.09-.18,11.72-.74,15.92-1.46C506.45,289.87,505.23,302.55,505.23,303.82Z"/><path class="cls-3" d="M519.41,150.93c0,2.08.44,17.55.44,18.24,0,.85,4.48,2,4.94.19s.36-16,.19-18.37C524.88,149.53,519.41,149.54,519.41,150.93Z"/><path class="cls-2" d="M531.74,170.62c-.17,1.85-5.62,2.58-5.62,3.74s-1.29,36.47-4.45,43.81-10,8.83-14.34,9c-1.16-2-1-3.5-1.16-5-.15-1.29.57-3.56.25-4.7.73-.24,5.69-2,6.91-5.3,1.84-5,3.09-26.42,3-32.79-.06-6-.68-21.21.65-21.71,2.67-1,1.67,5.83,2.83,5.5s9.3-2.79,9.67-1c.31,1.5-1,1.66-1,2.16s1.86-.31,2.5,1.34c.54,1.4-1.65,2.27-1.6,2.67S531.94,168.48,531.74,170.62Z"/><path class="cls-2" d="M490.33,208s-2.71-6-2.33-7c.18-.47,2.83-1.5,4-3.5a32.74,32.74,0,0,0,1.83-5.33c.17-.67,2.33-1.83,2.5-2.83s-2.33-1-2.5-1.83-.5-4.17-1.17-5.5a7.67,7.67,0,0,0-4.67-3.17c-1.5-.17-5.83,5.83-7.5,12.33s2.61,15.77,3.5,17.17C485.17,210.17,490.83,209.33,490.33,208Z"/><path class="cls-2" d="M475.61,225c-.4,2.61-.71,4.86-.78,5.67-.09,1.15-.79,5.89-1.45,10.47a8.29,8.29,0,0,1-3.88-2.81c-1-1.83-.17-7.8-.17-9.5C469.33,226.8,472.84,225.73,475.61,225Z"/><path class="cls-3" d="M509.5,281.5c0,.34-1.21.67-3,1-4.2.72-11.83,1.28-15.92,1.46-.89,0-1.61.06-2.1.06s-.86,0-1.44-.06c-3.3-.2-9.66-1-14-1.63a21,21,0,0,1-4.68-1c-.66-.66,3.67-28.33,3.84-31,.07-1.24.63-5.16,1.21-9.19.66-4.58,1.36-9.32,1.45-10.47.07-.81.38-3.06.78-5.67.67-4.42,1.58-9.85,1.89-11,.5-1.83,3.67-7,6.5-5.67.54.26,4-.16,5.17-1.33s2.33-.5,3.66,1,5,6.17,7.17,7.33,5.67,1.17,6.17,1.67a1,1,0,0,1,.25.47c.32,1.14-.4,3.41-.25,4.7.16,1.5,0,3,1.16,5,.5.83-3.7.51-5.5,0-2.33-.67-4.5-2.17-4.5-1.34,0,1,4.84,20.17,6.34,27S509.67,280.17,509.5,281.5Z"/><path class="cls-2" d="M497.45,225.6a24.74,24.74,0,0,1-3.12-5.1"/><path class="cls-5" d="M488.79,180.64s1.94,1,3-.26c1.3-1.55.14-5.53-4.41-6.22-6-.91-9.93,2.42-11.27,4.92-1.94,3.63-.39,8-.91,8.81s-5.83.78-8.42,7.39c-2.22,5.66,2.07,11.27,1.43,12.57s-7.51,2.33-8,8.42,4.53,6.61,4.28,7.77-1.3,5.57,1.55,7,6.09-1.3,6.74-1.43,4.28,3.24,9.33-.65-1.94-13.34-.91-14.51,3.63-2.7,4-5.83c.65-5.31-3.24-8.16-3.11-8.55.3-.89,2.2-.39,3.63-3.37s-1.68-5.83-.91-6.87,2.83-1.64,3.63-3.89C489.05,184.14,488.13,180.78,488.79,180.64Z"/><ellipse class="cls-8" cx="491.52" cy="188.28" rx="0.55" ry="1.13"/><path class="cls-8" d="M488.22,200.74a7.54,7.54,0,0,1-3,1"/><path class="cls-2" d="M544.57,129.56c.4,0,2,2.15,1.88,5.77s-1.21,6-2.42,6-4.56-3.22-4-7.25C540.2,132.64,542.55,129.56,544.57,129.56Z"/><path class="cls-10" d="M495.73,140.79s.11,12.39.11,15.61,0,7.65,2.55,7.65c5.57,0,2.71-12.89,4.43-12.89,1.55,0,.22,8.86,4,8.86,3.22,0,3.36-7.17,3.36-10.87V140.7Z"/><path class="cls-10" d="M535.63,141.13V152c0,5.13,1,7.75,3.88,7.75s3.38-4.75,3.38-8.25c0-2.5.5-10.87,0-10.87S535.63,141.13,535.63,141.13Z"/><path class="cls-10" d="M495.58,128.77c.87-.22,49.26.52,49,.79a7.48,7.48,0,0,0-2,5.1c.13,5.64,1.93,6.41,1.48,6.71s-46.69.12-48.19.27-3.36-3.67-3.36-7C492.49,130.25,495,128.92,495.58,128.77Z"/><path class="cls-6" d="M544.43,135.06a34.48,34.48,0,0,0,4.56,0c.2-.2.13,9.8.13,10.47,0,.4-26.58,0-26.71.67s-.27,3.36-.27,3.36"/><path class="cls-5" d="M732.35,162l2.74,10.11c.86,3.24,1.93,7.16,3.15,11.65,1.44,5.38,3.11,11.56,4.95,18.34l3.74,13.85c8.36,31,18.8,69.53,27,99.58,1.25,4.56,2.43,8.93,3.57,13,1.27,4.65,2.45,9,3.53,12.89,1.25,4.56,2.36,8.57,3.28,11.91,1.82,6.51,2.94,10.43,3.11,10.81,1.34,2.85,12.42-1.47,11.45-4.35-.13-.39-1.29-4.4-3.17-11-1-3.33-2.09-7.36-3.39-11.92-1.11-3.93-2.34-8.29-3.65-13-1.16-4-2.37-8.33-3.63-12.8-8.48-29.95-19.32-68.34-28-99.09-1.36-4.81-2.67-9.45-3.91-13.81L748,180c-1.27-4.47-2.38-8.38-3.29-11.56-1.62-5.72-2.61-9.18-2.75-9.62C741.24,156.68,731.76,160,732.35,162Z"/><path class="cls-5" d="M709.09,190s29.49-10.42,31.26-10.87c2.52-.64,3.91,3.11,1.52,4.32-3.53,1.79-31.43,10.89-31.43,10.89"/><path class="cls-5" d="M715.63,214s29.49-10.42,31.26-10.87c2.52-.64,3.91,3.11,1.52,4.32-3.53,1.79-31.43,10.89-31.43,10.89"/><path class="cls-5" d="M722.36,238.53s30.41-10.82,32.17-11.27c2.52-.64,3.91,3.11,1.52,4.32-3.53,1.79-32.34,11.28-32.34,11.28"/><path class="cls-5" d="M727.77,264.27s31.38-11.22,33.14-11.67c2.52-.64,3.91,3.11,1.52,4.32-3.53,1.79-33.31,11.68-33.31,11.68"/><path class="cls-5" d="M735,290.47s31.22-11,33-11.49c2.52-.64,3.91,3.11,1.52,4.32-3.53,1.79-33.16,11.5-33.16,11.5"/><path class="cls-5" d="M742.17,315.72s32.06-10.92,33.83-11.38c2.52-.64,3.91,3.11,1.52,4.32-3.53,1.79-34,11.39-34,11.39"/><path class="cls-5" d="M749.19,343.47s32.23-13.45,34-13.91c2.52-.64,3.91,3.11,1.52,4.32-3.53,1.79-34.16,13.92-34.16,13.92"/><path class="cls-5" d="M696.51,170.95l2.69,10.48c.84,3.36,1.89,7.43,3.08,12.08,1.41,5.58,3.05,12,4.85,19l3.67,14.36C719,259,729.23,299,737.27,330.12c1.22,4.73,2.38,9.26,3.5,13.53,1.24,4.82,2.4,9.31,3.46,13.37,1.22,4.73,2.32,8.89,3.22,12.35,1.78,6.75,2.88,10.81,3.05,11.21,1.32,3,12.43-1.4,11.47-4.38-.13-.41-1.27-4.57-3.11-11.44-.94-3.46-2.05-7.63-3.33-12.36-1.09-4.08-2.3-8.6-3.58-13.43-1.14-4.2-2.33-8.63-3.56-13.27-8.32-31.05-19-70.86-27.49-102.75-1.33-5-2.62-9.8-3.84-14.32l-5-18.84c-1.24-4.63-2.33-8.69-3.22-12-1.59-5.93-2.56-9.52-2.7-10C705.44,165.56,695.94,168.86,696.51,170.95Z"/><path class="cls-6" d="M696.51,170.95c.64,1.72,8.09.64,9.59-3.13"/><path class="cls-6" d="M732.62,162c.64,1.72,7.58.68,9.08-3.1"/><path class="cls-8" d="M760.3,247.3c.34.48,3.24,9.44.77,10.7-5.59,2.86-17.19-1.58-16.9-.86s.86,6.73-2.72,7.73-8.11,1.65-8.31.86c-.14-.57-2.94-9-2.4-9.29s9.86-4.68,11.28-5a30.29,30.29,0,0,1,8.59-.57c.92,0-.86-2,.29-2.43S759.82,246.62,760.3,247.3Z"/><path class="cls-10" d="M735.31,213.87c2.43,3.89,9.15,20.06,10.56,23.58s3.52,10.56,4.22,12,9.85.7,10.21-2.11c.18-1.41-3.52-16.89-6.69-26.4-1.86-5.57-6.51-26.22-7.39-27.45-1.76-2.46-18.3,2.82-17.6,5.63S733.55,211.05,735.31,213.87Z"/><path class="cls-10" d="M716.57,206.67c.35,1.41,13.5,49,14.16,49.78,1.41,1.76,9.85,1.06,10.91-2.11.7-2.11-3.52-29.91-3.52-32.38s-.35-22.52-2.11-25.34S714.81,199.63,716.57,206.67Z"/><path class="cls-2" d="M739.76,143c3.25,1,16.33,14,14.19,17.84-2.56,4.63-14.58,2.27-14.58,2.27l-7.09-10.54Z"/><path class="cls-11" d="M699.82,136.33c.9.07,2.88-4,4.23-4,3.65,0,7.45-2.05,8.7-3.55s26.75,11.75,27,13.25-2.75,11.5-3.25,12.5,3.65,9.68,7.5,21.5c1.28,3.94,6.39,22,6.14,23.71s-32.25,11.11-33.14,8.54c-1.41-4.08-13.92-53.28-14.92-53.78s-7-1.17-10.51-2.58c-4.06-1.61-11.64-5.15-11.14-6.15s2.69-3.46,4.33-5.75a22.08,22.08,0,0,0,3.36-8.08C688.11,131,694.64,136,699.82,136.33Z"/><path class="cls-6" d="M699.82,136.33a30.4,30.4,0,0,0,7.87,1"/><path class="cls-6" d="M712.75,128.75c1.28.48,16.84,10.77,23.56,26.21"/><path class="cls-6" d="M702.75,154.5a9.51,9.51,0,0,0,5.7-1.51"/><path class="cls-6" d="M708.85,156.69a33.38,33.38,0,0,1-5.28-1.78"/><path class="cls-2" d="M704,132.3c-.27-1.06-1.22-8.27-.63-8.57s4.54-2.49,4.69-2.05c.07.22,3.42,5,4.84,7.77C713.18,129.92,704.59,134.43,704,132.3Z"/><path class="cls-2" d="M694.18,106c-.5.85,1.17,4.4,1,5.28s-2.49,3.37-2.2,4,2.8.41,2.93.73,1.61,8.06,6.74,8.94,16.42-10.55,13-16.42S696.67,101.74,694.18,106Z"/><path class="cls-8" d="M698.11,109.4c1-.25,1.22,2.12.24,2.34C697.58,111.91,697.12,109.64,698.11,109.4Z"/><path class="cls-8" d="M697.2,118.94a8.49,8.49,0,0,0,1.72-.46"/><path class="cls-8" d="M693.08,107.5c.24.8,13.09-.84,13.25-.25a23.3,23.3,0,0,0,.5,2.58c.59,0,2.17-.67,2.42.08.65,1.94-1.83,2.17-1.83,2.83s.08,7.42.58,9.5,2.66,6.42,5.08,6.25c11-.75,10.25-11.25,4.58-23s-17.63-7-18.42-6.75C695.75,99.83,692.08,104.17,693.08,107.5Z"/><line class="cls-6" x1="743.8" y1="158.69" x2="736.71" y2="154.65"/><path class="cls-2" d="M687.74,133.34c-.38-.64-11-8.47-15.66-13.73-3.78-4.3-12.32-18.61-12.71-19.12s1.16-2.44,1.16-3.59a24.67,24.67,0,0,1,.13-4.24c.26-1.67,3.21-4.88,1.8-5.26s-4.49,1.28-5.26,4.49c-.09.36-2.49-3.14-4-7.06s-1.16-7.19-2.31-7.06c-.68.08-.75,3.55,0,6.8s1,4.24.64,4.49-.88-.47-2.31-3.59c-1.55-3.39-2.16-6.24-2.7-5.78s-.3,3.45.9,6.93c1,3,1.77,4.95,1.41,5s-1.24-1.12-2.7-3.47c-1.85-3-3.16-6-3.59-5.65s.29,3.69,1.8,6.93c1.25,2.7,1.82,4.12,1.41,4.24S644,93,642.95,91c-1.75-3.5-3-6.42-3.59-6-.42.25,0,3.76,1.8,7.32a54.69,54.69,0,0,0,4.75,7.7c1.8,1.93,4.62,4.36,5,5.26s11.68,19.77,16.43,26.44c1.48,2.08,14.25,14.25,14.63,14.12S689.79,136.8,687.74,133.34Z"/><path class="cls-2" d="M103.33,95.17c-.22-.45,6.83-9.83,7.17-9.33s5.67,5.33,5,6.17-5.67,9-6.17,8.67S103.5,95.5,103.33,95.17Z"/><path class="cls-2" d="M111.67,91.33c5.16,4.41,9.88-1,10.69-2.31.31-.51,3.56-.68,4.23-1.34s-2.36-2.57-2.19-3.24,1.6-8.11.44-9.28-9-2.67-11.83-1.5S103.66,84.5,111.67,91.33Z"/><path class="cls-8" d="M120.41,80.72c-1.09-.6-2.28,2.41-1.49,2.73S121,81,120.41,80.72Z"/><path class="cls-8" d="M54.64,217.64c0,3.39-6.11,7.81-4.75,9.84s10.44,15.1,16.55,14.42,1.63-6.75-.7-9.55a11.81,11.81,0,0,1-3.21-7.63C62.45,221.37,54.64,216.28,54.64,217.64Z"/><path class="cls-8" d="M115.12,231a16.17,16.17,0,0,0,1.86,7.45c1.94,2.91,10.3,16.22,15,14.19s2.38-10.52-.34-13.58-6.45-8.8-6.79-10.16S115.27,228,115.12,231Z"/><path class="cls-4" d="M111.91,174.14c1.51,1.82,11.21,20.6,11.51,23s5.15,32.11,4.54,33.32-13.33,2.73-13.93.61-2.73-26.05-5.15-28.78-17.27-25.75-15.75-27S111.91,174.14,111.91,174.14Z"/><path class="cls-4" d="M75.26,175.35c0,3.35-3.94,17-4.85,18.48s-17,22.42-17.87,24.23,8.48,8.48,10,6.66,22.11-21.81,23.93-24.84S98,178.38,97.68,177.17,75.26,173.23,75.26,175.35Z"/><path class="cls-8" d="M121.92,76.17c.35.47-.63,4.22,3.25,4.92,5.08.92,12.17-8.92,4.33-13.08-5.8-3.08-8.25,2-8.92,1.92s-1.25-2.25-5.08-2.83c-3-.45-10.83,2-11.33,9.42-.46,6.82,3.83,10.83,4.17,10.67a13.44,13.44,0,0,0,2.67-4c.08-.67-1.48-1.88-.67-2.92,1.25-1.58,2.42.58,3,0s3.17-3.5,4.42-4S121.42,75.5,121.92,76.17Z"/><path class="cls-3" d="M42.33,69c-.66,1.33-12,31.67-13,33.67S59.67,125,59.33,126s-9.66,25.33-9.66,25.33S17,147.67,15.33,147.67s-12,32-12.66,33.66S125,181.67,126,181s10.67-29.33,10.67-30.33S43.29,67.09,42.33,69ZM75,156.67c-1.67,0,4.81-17.44,6-18.34s20.67,16.34,21.67,17.34S76.67,156.67,75,156.67Z"/><path class="cls-1" d="M113.73,129.59c-.32,0-15.42-13.37-15.42-13.37a86.44,86.44,0,0,0-14,20.78c-5.33,11.67-.33,37,0,38.67s-8,3.33-10,3.66a.82.82,0,0,1-.61-.12c-1.6-.93-2.46-6.77-3-14.21C70,156.67,70,129.84,81,113.84S104.18,92,104.18,93.62s4.74,6,6.36,6.24c.74.1,2.2,6.93,2.46,14.81C113.16,119.33,114,128.25,113.73,129.59Z"/><path class="cls-2" d="M93.71,181.12c-.7.78-4.78.61-5.39.52s1.21,3.83-1,4.52-2.44-2.09-3-1.83.61,3-1.3,3.31-2.44-2.61-3-2.44,1,3.14-1,3.4-5.23-8.14-5.31-9a1.54,1.54,0,0,1,0-.43.82.82,0,0,0,.61.12c2-.33,10.34-2,10-3.66.54-.23,1.9,1.71,4.16,2.58C91,179.2,94.4,180.33,93.71,181.12Z"/></g></svg>