<?xml version="1.0" encoding="utf-8"?>
<!-- Generator: Adobe Illustrator 21.1.0, SVG Export Plug-In . SVG Version: 6.00 Build 0)  -->
<svg version="1.1" id="Layer_1" xmlns="http://www.w3.org/2000/svg" xmlns:xlink="http://www.w3.org/1999/xlink" x="0px" y="0px"
	 viewBox="0 0 802 460" style="enable-background:new 0 0 802 460;" xml:space="preserve">
<style type="text/css">
	.st0{fill:#FFFFFF;}
	.st1{clip-path:url(#SVGID_2_);fill:#FFFFFF;}
	.st2{clip-path:url(#SVGID_2_);fill:#E06287;stroke:#3D3935;stroke-linecap:round;stroke-linejoin:round;stroke-miterlimit:10;}
	.st3{clip-path:url(#SVGID_2_);fill:#3D3935;}
	.st4{fill:none;stroke:#3D3935;stroke-linecap:round;stroke-linejoin:round;stroke-miterlimit:10;}
	.st5{clip-path:url(#SVGID_4_);fill:#FFFFFF;stroke:#3D3935;stroke-linecap:round;stroke-linejoin:round;stroke-miterlimit:10;}
	.st6{clip-path:url(#SVGID_4_);fill:#E06287;stroke:#3D3935;stroke-linecap:round;stroke-linejoin:round;stroke-miterlimit:10;}
	.st7{fill:#3D3935;}
	.st8{fill:#F1B828;stroke:#3D3935;stroke-linecap:round;stroke-miterlimit:10;}
	.st9{fill:#E06287;stroke:#3D3935;stroke-linecap:round;stroke-miterlimit:10;}
	.st10{fill:#8FD6BD;stroke:#3D3935;stroke-linecap:round;stroke-miterlimit:10;}
	.st11{fill:#7D6378;stroke:#3D3935;stroke-linecap:round;stroke-linejoin:round;stroke-miterlimit:10;}
	.st12{fill:#FFFFFF;stroke:#3D3935;stroke-linecap:round;stroke-miterlimit:10;}
	.st13{fill:none;stroke:#3D3935;stroke-linecap:round;stroke-miterlimit:10;}
	.st14{fill:#7D6378;stroke:#3D3935;stroke-linecap:round;stroke-miterlimit:10;}
	.st15{fill:#FFFFFF;stroke:#3D3935;stroke-linecap:round;stroke-linejoin:round;stroke-miterlimit:10;}
	.st16{fill:#E06287;stroke:#3D3935;stroke-linecap:round;stroke-linejoin:round;stroke-miterlimit:10;}
	.st17{fill:#3D3935;stroke:#3D3935;stroke-linecap:round;stroke-miterlimit:10;}
	.st18{fill:#3D3935;stroke:#3D3935;stroke-miterlimit:10;}
	.st19{fill:#3D3935;stroke:#3D3935;stroke-linecap:round;stroke-linejoin:round;stroke-miterlimit:10;}
	.st20{fill:#8FD6BD;}
	.st21{fill:#F1B828;stroke:#3D3935;stroke-linecap:round;stroke-linejoin:round;stroke-miterlimit:10;}
	.st22{fill:#8FD6BD;stroke:#3D3935;stroke-linecap:round;stroke-linejoin:round;stroke-miterlimit:10;}
	.st23{fill:#489FDF;stroke:#3D3935;stroke-linecap:round;stroke-linejoin:round;stroke-miterlimit:10;}
	.st24{fill:#E06287;}
	.st25{fill:#FFFFFF;stroke:#3D3935;stroke-miterlimit:10;}
	.st26{fill:none;stroke:#3D3935;stroke-miterlimit:10;}
</style>
<g>
	<path class="st0" d="M510.6,279l-0.2-6.4l2.8,0l0-5l2.8-0.2l0-4.9l3.4-0.1l0-5.4c0,0,18.3,1.9,25.7,10c7.3,8.2,11,21.8,11,21.3
		s2.5-13.7,13.7-22.5c11.2-8.8,28-17,28-17l3.6,8.6c0,0,1.2-0.6,3.3-1.2c2.6-0.8,4.5-1,4.5-1l1.9,3.1l3.5-0.6l3.4,5.9l4.1-0.7
		l3.4,8.6l-64.2,31.8l-20.5-1.2L510.6,279z"/>
	<g>
		<g>
			<defs>
				<path id="SVGID_1_" d="M633.7,291.9l21.5-27.6c1.3-1.6,3.6-2.1,5.4-1.1l28.4,15.2l-30.5,38.4l-28.8-17L633.7,291.9z"/>
			</defs>
			<clipPath id="SVGID_2_">
				<use xlink:href="#SVGID_1_"  style="overflow:visible;"/>
			</clipPath>
			<path class="st1" d="M633.7,291.9l21.5-27.6c1.3-1.6,3.6-2.1,5.4-1.1l28.4,15.2l-30.5,38.4l-28.8-17L633.7,291.9z"/>
			<path class="st2" d="M666.4,262.9l-35.1,44.9c0,0-9.3-4.4-8.9-5s34.9-45.7,34.9-45.7L666.4,262.9z"/>
			<ellipse class="st3" cx="657.3" cy="268.1" rx="1.8" ry="1.8"/>
		</g>
		<path class="st4" d="M633.7,291.9l21.5-27.6c1.3-1.6,3.6-2.1,5.4-1.1l28.4,15.2l-30.5,38.4l-28.8-17L633.7,291.9z"/>
		<g>
			<defs>
				<path id="SVGID_3_" d="M671.9,287.7l-12.7,35c-1,2.9,0.8,6,3.9,6.4l31,4.1l13.6-44.4l-30.6-4.4
					C674.9,284.2,672.7,285.5,671.9,287.7z"/>
			</defs>
			<clipPath id="SVGID_4_">
				<use xlink:href="#SVGID_3_"  style="overflow:visible;"/>
			</clipPath>
			<path class="st5" d="M671.9,287.7l-12.7,35c-1,2.9,0.8,6,3.9,6.4l31,4.1l13.6-44.4l-30.6-4.4
				C674.9,284.2,672.7,285.5,671.9,287.7z"/>
			<polygon class="st6" points="682.1,281.5 665.1,335.1 653.8,331.1 668.8,281.8 			"/>
		</g>
		<path class="st4" d="M671.9,287.7l-12.7,35c-1,2.9,0.8,6,3.9,6.4l31,4.1l13.6-44.4l-30.6-4.4C674.9,284.2,672.7,285.5,671.9,287.7
			z"/>
		<ellipse class="st7" cx="674.9" cy="290.6" rx="1.8" ry="1.8"/>
	</g>
	<g>
		<path class="st8" d="M475.4,44v211c0,7.3,0,15.5-11,15.5H48.7c-10.1,0-12.8-1.8-12.8-10V41.3c0-1.5,0.2-2.9,0.6-4.1
			c1.8-5.6,7.4-8.7,14.9-8.7h410.2c9.1,0,12.3,5.4,13.3,10.8c0,0,0,0,0,0C475.3,40.9,475.4,42.6,475.4,44z"/>
		<path class="st9" d="M475,39.3c-1-5.4-4.2-10.8-13.3-10.8H51.5c-7.5,0-13.1,3.1-14.9,8.7c-0.1,0-0.1,0-0.1,0
			c0-1.9,2.8-14.1,24.1-14.1h395.5C466.4,23,474.4,30.8,475,39.3z"/>
		<rect x="48.5" y="40.5" class="st10" width="414" height="218.3"/>
		<g>
			<rect x="431.1" y="165.1" class="st11" width="57.3" height="21.3"/>
		</g>
		<g>
			<path class="st12" d="M445.1,95.2v137.1c0,8.8-7,19.6-19.4,19.6H156.6c-11.4,0-16.7-5.3-16.7-17.6c0-3.7-0.2-16.7-0.4-33.5
				c-0.5-39.6-1.4-99.8-1.4-104.8h306.6C444.7,96.1,444.9,95.8,445.1,95.2z"/>
			<path class="st9" d="M445.1,91.7v3.5c-0.3,0.6-0.4,0.9-0.4,0.9H138.1c0-14.1,3.1-23.8,16.3-23.8h272.5
				C436.5,72.3,445.1,77.8,445.1,91.7z"/>
			
				<ellipse transform="matrix(0.2472 -0.969 0.969 0.2472 238.6423 476.0527)" class="st9" cx="425.7" cy="84.4" rx="5.6" ry="5.3"/>
		</g>
		<g>
			<rect x="396.8" y="134.5" class="st11" width="72" height="21.3"/>
			<path class="st12" d="M412.1,82.3v140.6c0,9-7.2,20.1-19.8,20.1H116.3c-11.7,0-17.2-5.4-17.2-18c0-3.7-0.2-17.1-0.4-34.3
				c-0.5-40.6-1.4-102.3-1.4-107.4h314.3C411.7,83.2,411.9,82.8,412.1,82.3z"/>
			<path class="st9" d="M412.1,78.7v3.6c-0.3,0.6-0.4,0.9-0.4,0.9H97.4c0-14.4,3.2-24.4,16.7-24.4h279.3
				C403.3,58.8,412.1,64.4,412.1,78.7z"/>
			
				<ellipse transform="matrix(0.2472 -0.969 0.969 0.2472 226.2277 433.6664)" class="st9" cx="392.2" cy="71.2" rx="5.8" ry="5.4"/>
			
				<ellipse transform="matrix(0.2472 -0.969 0.969 0.2472 211.1727 414.2873)" class="st9" cx="372.2" cy="71.2" rx="5.8" ry="5.4"/>
			
				<ellipse transform="matrix(0.2472 -0.969 0.969 0.2472 196.1176 394.9082)" class="st9" cx="352.2" cy="71.2" rx="5.8" ry="5.4"/>
		</g>
		<g>
			<line class="st13" x1="206.1" y1="103.9" x2="229.4" y2="103.9"/>
			<line class="st13" x1="159.3" y1="103.9" x2="202.1" y2="103.9"/>
			<line class="st13" x1="239" y1="112.3" x2="266.9" y2="112.3"/>
			<line class="st13" x1="188.6" y1="112.3" x2="233.6" y2="112.3"/>
			<line class="st13" x1="159.3" y1="112.3" x2="174.9" y2="112.3"/>
			<line class="st13" x1="202.4" y1="121.2" x2="241.9" y2="121.2"/>
			<line class="st13" x1="159.3" y1="121.2" x2="181.1" y2="121.2"/>
			<line class="st13" x1="237.8" y1="144.4" x2="254.5" y2="144.4"/>
			<line class="st13" x1="193.9" y1="144.4" x2="233.4" y2="144.4"/>
			<line class="st13" x1="159.3" y1="144.4" x2="181.1" y2="144.4"/>
			<line class="st13" x1="224" y1="128.5" x2="241.9" y2="128.5"/>
			<line class="st13" x1="159.3" y1="128.5" x2="201.6" y2="128.5"/>
			<line class="st13" x1="194" y1="136.6" x2="241.9" y2="136.6"/>
			<line class="st13" x1="159.3" y1="136.6" x2="172.2" y2="136.6"/>
		</g>
		<path class="st14" d="M306.7,334.4c-2.1-7.6-2.1-11.3-2.3-17.9c-0.5-15-0.2-45.9-0.2-45.9h-95.4v47.6c0,21-15.3,37.7-15.6,39
			c-0.3,1.4,124.8,0.5,125.3,0C318.8,356.9,310.9,347.7,306.7,334.4z"/>
	</g>
	<g>
		<path class="st10" d="M99.8,355c-0.3,2.5-0.5,4.1-0.6,4.3c-0.3,0.4-6,2.4-11.8,5.7c-2.7,1.6-3.8,2.8-2.8,3.6
			c1.4,1.2,8.1,0.3,13.9-0.5c6.3-0.9,9.3-1,9.8-1.9c0.1-0.2,0.4-1.8,0.7-3.7c0.3-2.1,0.8-4.8,1.2-7.9L99.8,355z"/>
		<path class="st10" d="M148.1,354c0.7,3,1,4.2,1.1,4.3c0.3,0.4,3.7,2.1,10.1,5.3c2.8,1.4,4.5,2.5,4,3.6c-0.5,1.3-9.1,0.5-14.9,0.3
			c-6.5-0.2-8,0-8.5-0.9c-0.1-0.2-0.7-3.1-1-5c-0.3-2.1-0.8-4.8-1.2-7.9L148.1,354z"/>
		<g>
			<path class="st15" d="M146,267.9l6.3,2.6c0,0-0.8,5.3-2.9,8.7c-2.1,3.4-8.3,6.6-8.3,6.6l1.8-9c0.1-1.2,0.4-2.3,0.9-3.4L146,267.9
				z"/>
			<path class="st4" d="M147.3,275.7c-1.2,2.6-0.5,3.2-4.4,4.3"/>
		</g>
		<path class="st16" d="M146.1,196.9c2.1,0.8,3.5,2,4.2,4.1c1.5,4.8,3.9,16.6,4.4,38.7c0.3,13.8-2.4,30.8-2.4,30.8l-9-3.2l-0.6-52.7
			l3.4-17L146.1,196.9z"/>
		<path class="st17" d="M104,273.2l-6.2,82.4l12.1,0.2c0,0,6.6-22.5,8.5-36.2s5.6-31.8,5.6-31.8s3.1,16.4,6.8,36.7
			c3.2,17.8,6.5,30.2,6.5,30.2l12.5-0.2c0,0-5-65.8-7.2-80.8c-1.7-11.4-20.7-8.4-27.5-8.1C108.3,265.8,104,273.2,104,273.2z"/>
		<path class="st16" d="M143,220.5c0.9-5.4,2.3-10.8,4.2-15.9c0.7-2,1.4-3.9,1.6-5c0.5-2.5-6.7-6.3-23.2-6.4
			c-15.7-0.1-23.2,5.2-23.2,5.2l7.8,33l-0.7,0l-5.3,44.4c0,0,5.4,1.9,19.3,1.7c18-0.2,23.5-3.3,23.5-3.3l-6.2-43.3
			c0.3-0.5,0.5-1,0.6-1.6C141.9,227.3,142.4,223.8,143,220.5z"/>
		<g>
			<path class="st12" d="M127.8,157c5.7,1,7,3.3,8.2,5.5c0.9,1.6,1.9,5.5,2.4,6.2c0.5,0.7,3.3,3.2,3.3,4.2c-0.1,1-4.1,0-4.5,1
				c-0.4,0.9-0.7,8.9-3.2,10.6c-2.9,2-5.6,0.7-5.4,1.8s1,5.9,1.3,7c0.3,1-3.6,2.3-6,2.6c-4,0.6-7.9,0.8-8-0.4
				c0-1.2,0.6-11.5,0.5-11.9c-0.5-2.2-5.1-9.2-2.9-16.6C116.1,158.7,124,156.4,127.8,157z"/>
			<path class="st18" d="M132.2,170.4c1.3,0.3,0.9,3.4-0.2,3.2C131.2,173.4,131.2,170.2,132.2,170.4z"/>
			<path class="st12" d="M135.7,181.7c0,0-5.8,1.4-9-3.9c-2.5-4.1-4.1-10-4.1-10l-2.7,0.8c0,0,0.7,5.4,3.6,10.8
				c1.5,2.8,4.1,4.6,6,5.3c2.4,0.9,4.3,0,4.3,0s0.6-0.4,1-1.1C135.7,182.1,135.7,181.7,135.7,181.7z"/>
			<path class="st19" d="M139.2,150.2c1.3-2.7,0.9-6.8-2.3-9.1c-2.3-1.7-4.5-0.8-5.8-3.5s-3.5-3.7-7.4-3.5c-5.1,0.2-6.9,4-8.3,7.8
				c-0.8,2.2-3.7,1.5-4.5,4.9c-1,4.1,1.4,4.1,1.1,7.5c-0.2,2.9-2.8,2.8-3.2,7.2c-0.3,3.3,2.6,4.2,2.4,8.1c-0.2,3.9-1.5,5-0.8,7.6
				c0.8,3.1,3.4,2.8,4.7,6.4c0.3,0.7,1.4,2.4,2.7,2.5c6.6,0.1,4-10.6,3.1-11.2c-1.4-1-1.2-4.3,2.4-4.3c2.4,0,3.2-3.3,5.7-5.1
				c7.1,1.3,11.6-1.5,11.5-7.4C140.5,153.6,137.9,152.9,139.2,150.2z"/>
		</g>
		<path class="st15" d="M140.9,230.8c0,0-3.5,1.7-17.6,1.8c-14,0.1-19.3-1.2-19.3-1.2l-1.1,7.1c0,0,6.8,2.2,20.4,2.1
			c13.7-0.1,18.5-2.5,18.5-2.5L140.9,230.8z"/>
		<line class="st15" x1="119.1" y1="232.7" x2="118.5" y2="240.2"/>
		<line class="st15" x1="126.3" y1="232.6" x2="126.7" y2="240.4"/>
		<path class="st19" d="M129.3,189.5c0,0-1,1.2-6.9,1.4c-4,0.1-6.1-0.7-6.1-0.7l-0.5,5.7c0,0,2.6,1.5,7.8,1.1
			c2.7-0.2,4.6-0.6,5.7-1.3c0.7-0.5,1.1-1.5,0.9-2.4L129.3,189.5z"/>
		<line class="st15" x1="121.5" y1="240.8" x2="119.6" y2="279.5"/>
		<path class="st16" d="M102.4,198.3c0,0-3.5-0.3-7.7,26.6s-5.2,29.3-4.3,36.4c0.8,7.1,1.9,10.1,1.9,10.1s8.6-2.8,8.7-3.3
			c0.2-0.5,6.9-53.3,6.9-53.3L102.4,198.3z"/>
		<path class="st19" d="M122,122c-6.8,0.9-8.3,7.4-8.3,8.6c0,1.2-3.8-0.8-7.2,7.7c-2.3,5.8,1.3,12.8,1.3,12.8s-3,3.7-2.6,9.7
			c0.5,6,4.9,8.6,4.9,8.6s-3.7,2.6-3.4,7.8c0.5,10.4,11.8,8.7,11.8,8.7l3.4-27.8l15.2,6.8c0,0,4.5-0.2,5.9-5.3
			c1.3-5.2-2.7-7.2-2.7-7.2s3.1-3.2,2-8.7c-1.2-6-5.2-6.8-5.2-6.8s2.2-3,0.3-6.8c-2.2-4.5-7.4-3.6-7.4-3.6S128.7,121.2,122,122z"/>
		<g>
			<polygon class="st15" points="123.8,221.1 110.9,180.2 91.7,218.6 103.1,219.7 98.5,275.1 107.4,275.8 112,220.4 			"/>
			<path class="st15" d="M110.1,273.4c1.4-0.4,1.3,1.6-0.6,4.4c-1.9,2.7-3.2,3.2-8.1,1.4L110.1,273.4z"/>
			<path class="st15" d="M98.3,268.7l-6.1,2.7c0,0,5.3,7.2,8.1,7.7c1.9,0.4,5,0.6,6-0.6c2-2.5,3.7-4.7,2.7-5.4c-1.2-0.8-4.5,3-4.5,3
				l-1.8-0.9L98.3,268.7z"/>
			<path class="st15" d="M98.3,268.8c0,0,1.4,0.9,2.8,2.1c1.2,1.1,3.4,2.6,3.7,3.9c0.2,0.9-0.2,1.9-1.6,1.2c-1.4-0.7-2-1.1-4.1-1.8
				c-0.6-0.2-1.6-0.6-1.6-0.6"/>
		</g>
	</g>
	<g>
		<path class="st0" d="M320.2,387.3l44.4-23.3l65.2,1.3l0.2,12.7l13.8,0.3c0,0-3.5,3.1-4.3,4.8c-0.8,1.7-1.2,4.9,0.2,9.7
			c0.8,2.7,2.5,4.6,2.5,4.6l-35,34.3l-69.6-2l-2.9,0.7c-1.3,0.6-2.2,0.5-2.5-0.5c-0.4-1.4-0.6-4.4-0.6-7.4c0.1-6.5,0-9.2,0.3-11.5
			c0.2-1.8,1-2.5,2.1-2.9l11.4-4.8l-24.5-0.6l7.1-3.3l0.9-11.8L320.2,387.3z"/>
		<g>
			<polyline class="st4" points="336.4,414.3 407.8,417.4 438.3,388.9 			"/>
			<path class="st4" d="M440,382.2c-2.2,2.9-1.9,10.9,2.1,14.9"/>
			<path class="st20" d="M429.9,378.1l-0.2,1.8l-25.7,23c-1.3,1.2-1.2,1.2-5.2,1.4c-2.3,0.1-53.2-1.1-53.2-1.1s-12,5.4-11.7,5.5
				c0.1,0,1.1,0.4,2.2,0.7c1.9,0.6,3.8,0.9,5.8,1.1c17.9,1.9,66.3,2.7,66.3,2.7l35.6-34.7L429.9,378.1z"/>
			<path class="st4" d="M336.1,419.3l71.8,2.7l31.5-29.3l6.1,1.5l-38.3,37.5l-69.3-2c0,0-2.2,0.3-4.2,1s-2-3-2-13s0.2-10,5.5-8
				c5.3,2,70.7,3.3,70.7,3.3l36-34.7l-13.8-0.3"/>
			<polyline class="st4" points="440.3,395.5 408.1,427 336.6,424.8 			"/>
			<path class="st4" d="M328.8,387.7l72.5,1c1.4,0,2.5,1.1,2.5,2.5v10.6c0,1.4-1.2,2.5-2.6,2.5l-80.4-1.6l7.1-3.3L328.8,387.7
				l-8.5-0.4l44.4-23.3l65.2,1.3"/>
			<line class="st4" x1="403.5" y1="399.9" x2="327.8" y2="399.5"/>
			<line class="st4" x1="328.3" y1="395.9" x2="403.5" y2="396.6"/>
			<line class="st4" x1="328.8" y1="391.3" x2="403.8" y2="392.8"/>
			<line class="st4" x1="345.9" y1="403.3" x2="333.1" y2="408.7"/>
			<path class="st4" d="M337.1,409.7c0,0-3.1,11,0.6,19.8"/>
			<polyline class="st4" points="403.8,402.9 429.8,379.9 429.8,365.4 402.1,388.4 			"/>
		</g>
	</g>
	<path class="st15" d="M349.3,247.7c0,0-1,15.9-3.3,34.2c-1.8,14.4-4.1,28.5-4.1,28.5l71.6-0.3l5.2-63L349.3,247.7z"/>
	<path class="st21" d="M21.8,61.3c0,0-6.6,20.2-8.5,47.1c-0.8,11,0,11,0,11l57.8,1.3l9.5-58L21.8,61.3z"/>
	<polygon class="st15" points="69.1,54.1 61.1,75.1 48.5,72.9 56.6,52.1 	"/>
	<g>
		<path class="st22" d="M324.8,236c0,0-1.1,19.9-2.7,39.9c-1.2,15.7,0.5,29.9,0.5,29.9l69.4-3.5l2.4-68.6L324.8,236z"/>
		<path class="st15" d="M374.4,223.4l-15.9,0.8l-5.1,21.2c-0.2,0.8,0.5,1.6,1.3,1.5l14.6-1.1L374.4,223.4z"/>
		<path class="st4" d="M330.2,273c5.2-2,19.7-21,12.2-20.1c-7.5,0.9-5,19.5,5,19.8c10,0.2,15.3-14.3,11.3-14.8c-4-0.5-6.2,11.8,1,14
			c7.1,2.1,15.1-6.8,15.2-11.7c0.1-4.3-4.9-3.3-5.1,2.7c-0.2,6,0.2,9.5,6.7,8.9"/>
		<path class="st4" d="M336.3,294.8c0.7-0.3,11.3-5.1,12-11.6c0.3-2.6-3.4-3.7-4.7-1.1c-1.9,3.8,0.4,13,9.5,12.7
			c15.2-0.5,19.3-16.8,13.8-12.5c-5.5,4.3-3.4,11.7,2.6,11.9"/>
	</g>
	<g>
		<g>
			<path class="st19" d="M644.7,418c2.3,3.4,3,5.8-2.1,9.6c-5.1,3.7-8.7,6.6-5.7,7s11.7,0.3,16.4-4.1c4.8-4.6,6.3-5.8,8.4-8.8
				c2.1-3-6.5-8.5-8.4-10.2c-1.9-1.7-2.1-0.4-4.9,1.9C645.5,415.7,644.7,418,644.7,418z"/>
			<path class="st19" d="M545.7,431.8c0,0-1.5,7.2-1.9,8.9s-18.5,2.1-24.2,1.9c-5.7-0.2-1.1-3.6,6.6-6.8c7.6-3.2,7.4-3.4,8.5-6.8
				c1.1-3.4,12.1-1.1,12.1-1.1L545.7,431.8z"/>
			<path class="st14" d="M571.2,356c0,0-20,22.7-24.6,33.3c-4.7,10.6-16.1,41.6-16.1,41.6l17.4,0.8l14.9-31.6c1.7-3.5,4-6.7,7-9.2
				l31.2-27.3L571.2,356z"/>
			<path class="st14" d="M587.9,362.8c13.3,29.2,53.5,59.9,53.5,59.9l12.7-10.6c0,0-32.3-37.7-38-54.1
				C613.5,350,587.9,362.8,587.9,362.8z"/>
			<g>
				<path class="st22" d="M627.8,269.5c0,0-23.5,5.5-45.6,16.4c-13.7,6.8-20,13.5-20,13.5l25.7,69.9c0,0,14.9-6.2,31.1-11.6
					c16.9-5.7,33.8-8.6,33.8-8.6L627.8,269.5z"/>
				<g>
					<path class="st15" d="M647.5,318.9c0.6,0.7,1.1,1.7,1.6,3c1.6,4.3,2.1,8.4,1.3,10.7c-0.6,1.9-3.3,2.6-6.9,3.4
						c-3.6,0.7-6.6-1-6.6-1s-0.1,0-1.6-0.2c-1.2-0.1-2.3-0.9-1.6-1.6c0.5-0.6,1.7-0.8,3.3-1c3.7-0.4,7.5-2.4,7.5-2.4
						s-5.7,1.1-8.1,1.4s-4.8-0.1-4.9-1c0-1.4,1.1-1.3,5.7-2.2c4.7-1,7.1-2.5,7.1-2.5s-4,1.5-7.9,1.5c-3,0-4.2-0.4-4.1-1.2
						c0.1-0.8,1.7-1.2,3.2-1.4c2.3-0.4,4.1-0.7,5.9-1.5c3-1.2,2.6-1.5,2.6-1.5l-1.2-4.1C643,317.4,645.4,316.4,647.5,318.9"/>
					<path class="st4" d="M645.2,333.5c0,0-3.9,1.5-8.5,1.4"/>
				</g>
				<g>
					<polygon class="st16" points="577.3,326 577.5,299.6 586.2,295.6 605,314.6 596,317.7 589,311.2 584.5,312.9 585.3,321.9 					
						"/>
					<polygon class="st22" points="586.8,306 583,307.7 583,302.3 					"/>
				</g>
				<path class="st4" d="M624.8,270l-2.7-6.9c0,0-12.2,0.3-30.3,9.5c-18.1,9.3-31.6,26.4-31.6,26.4"/>
				<path class="st4" d="M617.6,263.5l-3.1-5.4c0,0-10.2,0.2-27.8,11.9s-28.2,28.9-28.2,28.9"/>
				<path class="st4" d="M610.7,258.3l-1.7-2.9c0,0-13.8,1.7-29.7,15s-22.2,27.6-22.5,28.3c0,0,0.8-14.5-7.5-27.1
					c-8.3-12.6-29.7-14.5-29.7-14.5v5.2"/>
				<path class="st4" d="M516.1,267.1c0-0.7,0-4.5,0-4.5s15.7-1.7,27.1,9.3c11.4,10.9,12.4,26.4,12.4,26.4"/>
				<path class="st4" d="M554.2,299.9c0,0,0.3-12.2-10-22.1c-12.3-11.7-30.9-10.2-30.9-10.2l0,5"/>
				<path class="st4" d="M510.4,275.4v-2.9c0,0,21.5-1,32.7,8.1c11.2,9,9.9,20,9.9,20"/>
				<polygon class="st22" points="562.2,299.4 549.8,298 575.3,368.4 587.9,369.3 				"/>
				<path class="st22" d="M508,275.6c0,0,15.5-2.1,28.1,5.7c12.6,7.8,13.8,16.6,13.8,16.6l25.4,70.4c0,0-6.5-10.9-22.9-14.9
					c-10.9-2.7-25.1-2.4-25.4-3.1C526.8,349.6,508,275.6,508,275.6z"/>
				<g>
					<path class="st15" d="M520.8,333.7c0,0-0.7,1.9,1.3,3.3c1.4,1,2.9,2,3.3,1.3c0.4-0.7,0.2-1.8-1-2.7
						C523.1,334.8,520.8,333.7,520.8,333.7z"/>
					<path class="st15" d="M519.2,330.2c0,0-0.7,2.4,1.2,3.7c1.8,1.3,4.7,2.8,5.6,3c0.9,0.2,1.5-1.6,0.1-2.7
						C524.7,333.1,519.2,330.2,519.2,330.2z"/>
					<path class="st15" d="M519.3,323.5c0.6-0.3,1.4,0,1.9,0.4c1.2,0.8,2.9,1,5,2.7c0.9,0.8,1.6,2.1,1,2.6c-0.4,0.3-0.8,0-2.3-0.5
						c-0.6-0.2-0.7-0.2-2.5-0.9c-2.6-1.1-4-2.1-4-2.1s2.2,2,3.9,3c2.8,1.6,6.5,3.9,5.9,5.4c-0.5,1.2-2.4,0-4.9-1.3s-6.5-3.6-5.3-6.4
						c0.3-0.7,0.5-0.6,0.4-0.8C518,324.5,518.5,323.9,519.3,323.5z"/>
				</g>
				<g>
					<path class="st16" d="M610.1,304.5l3.6,20.4c0,0,13.4-3.6,17.2-6.1c4.2-2.8,4.1-12.1-2.7-13.2c-1-0.2-2.9,0.7-2.9,0.7
						s2.9-1.7,2.2-5.7c-0.9-5.6-5.9-6.6-12.3-4.3S610.1,304.5,610.1,304.5z"/>
					<path class="st22" d="M616.3,301.8l0.4,3.8c0,0,4.5-1,4.2-3C620.7,299.8,616.3,301.8,616.3,301.8z"/>
					<path class="st22" d="M619,312.9l0.9,5.3c0,0,6.7-0.8,5.8-4.9C625,310.4,619,312.9,619,312.9z"/>
				</g>
				<path class="st16" d="M610.7,327.2l-2.2,6.6c0,0-9-0.9-9.2,7c-0.1,4.1,2.3,6.9,6.5,5.7c2.6-0.7,3.8-3.4,3.8-3.4l6.1,2.8
					c0,0-2.1,9.5-12.4,9.6c-8.8,0-12.6-8.6-12-15.5c0.8-8.7,7.2-12.3,12-13.1S610.7,327.2,610.7,327.2z"/>
			</g>
		</g>
		<path class="st4" d="M556.3,290.1c0,0-0.8-10.2,11.2-22.2c8.8-8.9,30.3-19.1,30.3-19.1l3.4,8.5"/>
	</g>
	<g>
		<path class="st15" d="M774.8,231.5l-84.3-21.4c-3.7-0.9-6.3-4.3-6.3-8.1V43.8c0-5.4,5.1-9.4,10.4-8.1l84.3,21.4
			c3.7,0.9,6.3,4.3,6.3,8.1v158.3C785.2,228.9,780.1,232.9,774.8,231.5z"/>
		<path class="st11" d="M771.5,231.5l-82.6-21c-3.7-0.9-6.3-4.3-6.3-8.1V47.1c0-5.4,5.1-9.4,10.4-8.1l82.6,21
			c3.7,0.9,6.3,4.3,6.3,8.1v155.3C781.9,228.9,776.7,232.9,771.5,231.5z"/>
		<path class="st21" d="M763.9,208l-67.4-17.1c-3.7-0.9-6.3-4.3-6.3-8.1V62.3c0-5.4,5.1-9.4,10.4-8.1L768,71.3
			c3.7,0.9,6.3,4.3,6.3,8.1v120.5C774.2,205.3,769.1,209.3,763.9,208z"/>
		<path class="st15" d="M726.5,214.2l-4.9-1.1c-2.2-0.5-3.7-2.4-3.7-4.7l0,0c0-3.1,2.9-5.4,5.9-4.7l4.9,1.1c2.2,0.5,3.7,2.4,3.7,4.7
			v0C732.3,212.6,729.5,214.9,726.5,214.2z"/>
		<g>
			<g>
				<path class="st21" d="M616.1,58.1l-3.5,1c-1.4,0.4-2.2,1.8-1.8,3.2l2.3,8.1c0.4,1.4,1.8,2.2,3.2,1.8l3.5-1
					c1.4-0.4,2.2-1.8,1.8-3.2l-2.3-8.1C618.9,58.5,617.5,57.7,616.1,58.1z M616,60.9c0.6-0.2,1.2,0.2,1.4,0.8l1.7,5.8
					c0.2,0.6-0.2,1.2-0.8,1.4l-1.9,0.5c-0.6,0.2-1.2-0.2-1.4-0.8l-1.7-5.8c-0.2-0.6,0.2-1.2,0.8-1.4L616,60.9z"/>
				<path class="st21" d="M603.7,46l-2.7,2.5c-1.1,1-1.1,2.6-0.2,3.7l5.7,6.2c1,1.1,2.6,1.1,3.7,0.2l2.7-2.5c1.1-1,1.1-2.6,0.2-3.7
					l-5.7-6.2C606.4,45.1,604.8,45.1,603.7,46z M604.9,48.6c0.5-0.4,1.2-0.4,1.6,0.1l4,4.4c0.4,0.5,0.4,1.2-0.1,1.6l-1.4,1.3
					c-0.5,0.4-1.2,0.4-1.6-0.1l-4-4.4c-0.4-0.5-0.4-1.2,0.1-1.6L604.9,48.6z"/>
				<path class="st21" d="M615.5,69.9v6.8c0,1.1,0.9,2,2,2l0,0c1.1,0,2-0.9,2-2v-6.8c0-1.1-0.9-2-2-2l0,0
					C616.4,67.8,615.5,68.7,615.5,69.9z"/>
				<path class="st21" d="M608.7,57.2l4.6,5c0.8,0.8,2,0.9,2.8,0.1l0,0c0.8-0.8,0.9-2,0.1-2.8l-4.6-5c-0.8-0.8-2-0.9-2.8-0.1v0
					C608,55.1,608,56.4,608.7,57.2z"/>
				<path class="st21" d="M586,44.2l-0.6,3.6c-0.2,1.4,0.7,2.7,2.1,3l8.3,1.4c1.4,0.2,2.7-0.7,3-2.1l0.6-3.6c0.2-1.4-0.7-2.7-2.1-3
					l-8.3-1.4C587.5,41.8,586.2,42.8,586,44.2z M588.4,45.5c0.1-0.6,0.7-1.1,1.3-0.9l5.9,1c0.6,0.1,1.1,0.7,0.9,1.3l-0.3,1.9
					c-0.1,0.6-0.7,1.1-1.3,0.9l-5.9-1c-0.6-0.1-1.1-0.7-0.9-1.3L588.4,45.5z"/>
				<path class="st21" d="M596.7,49.9l6.7,1.1c1.1,0.2,2.1-0.6,2.3-1.7v0c0.2-1.1-0.6-2.1-1.7-2.3l-6.7-1.1
					c-1.1-0.2-2.1,0.6-2.3,1.7v0C594.9,48.7,595.6,49.7,596.7,49.9z"/>
				<path class="st21" d="M569.2,44.7v3.7c0,1.4,1.2,2.6,2.6,2.6h8.4c1.4,0,2.6-1.2,2.6-2.6v-3.7c0-1.4-1.2-2.6-2.6-2.6h-8.4
					C570.3,42.1,569.2,43.3,569.2,44.7z M571.8,45.6c0-0.6,0.5-1.2,1.2-1.2h6c0.6,0,1.2,0.5,1.2,1.2v2c0,0.6-0.5,1.2-1.2,1.2h-6
					c-0.6,0-1.2-0.5-1.2-1.2V45.6z"/>
				<path class="st21" d="M580.7,48.6h6.8c1.1,0,2-0.9,2-2v0c0-1.1-0.9-2-2-2h-6.8c-1.1,0-2,0.9-2,2v0
					C578.7,47.7,579.6,48.6,580.7,48.6z"/>
				<path class="st21" d="M552.9,44.7v3.7c0,1.4,1.2,2.6,2.6,2.6h8.4c1.4,0,2.6-1.2,2.6-2.6v-3.7c0-1.4-1.2-2.6-2.6-2.6h-8.4
					C554,42.1,552.9,43.3,552.9,44.7z M555.5,45.6c0-0.6,0.5-1.2,1.2-1.2h6c0.6,0,1.2,0.5,1.2,1.2v2c0,0.6-0.5,1.2-1.2,1.2h-6
					c-0.6,0-1.2-0.5-1.2-1.2V45.6z"/>
				<path class="st21" d="M564.4,48.6h6.8c1.1,0,2-0.9,2-2v0c0-1.1-0.9-2-2-2h-6.8c-1.1,0-2,0.9-2,2v0
					C562.4,47.7,563.3,48.6,564.4,48.6z"/>
			</g>
			
				<rect x="613.7" y="79.6" transform="matrix(-1 -4.487489e-11 4.487489e-11 -1 1236.1646 169.3766)" class="st21" width="8.7" height="10.1"/>
			<path class="st21" d="M613.6,81.9h8.9c1.2,0,2.2-1,2.2-2.2l0,0c0-1.2-1-2.2-2.2-2.2h-8.9c-1.2,0-2.2,1-2.2,2.2l0,0
				C611.4,81,612.4,81.9,613.6,81.9z"/>
			<g>
				<circle class="st8" cx="617.1" cy="111.8" r="26.3"/>
				<circle class="st12" cx="617.1" cy="111.8" r="23"/>
				<g>
					<line class="st23" x1="620" y1="122.6" x2="625.2" y2="123.9"/>
					<polyline class="st4" points="613.4,97.9 616.7,92.3 616.2,112.3 625.2,123.9 625.5,118.3 					"/>
					<line class="st23" x1="619.1" y1="97.6" x2="616.7" y2="92.3"/>
					<circle class="st23" cx="616.6" cy="112.4" r="2.5"/>
				</g>
			</g>
			<path class="st22" d="M636.8,181.3l9.9,7.3c0.9,0.7,0.8,2.1-0.2,2.6c-2.5,1.3-7.6,3-16.6,3.1c-9.9,0.2-15.1-2-17.5-3.4
				c-0.9-0.6-1-1.9-0.1-2.5l8.7-6.5L636.8,181.3z"/>
			<path class="st11" d="M621.4,182.1h16c2.9,0,5.2-2.3,5.2-5.2v-2.4c0-2.9-2.3-5.2-5.2-5.2h-16c-2.9,0-5.2,2.3-5.2,5.2v2.4
				C616.2,179.7,618.5,182.1,621.4,182.1z"/>
			<g>
				<path class="st15" d="M666,160.5c0.7-0.2,1-0.4,0.7-0.8c-0.3-0.5,1.6-11.8,1.6-11.8c0.9-4.5,8.8-2.2,11.2-0.7
					c5,3.3,14.3,5.8,22.8,9c8.2,3.1,12.3,4,14.9,5c2.5,0.9,12.3-5.9,14.2-7.5c5.4-4.4,7.8,15.3,4.5,18.5c-2.1,2-5.6,6.7-16.3,7.5
					c-7.9,0.6-29.3-11.2-35.6-14.8c0,0-0.8-0.1-5-0.5c-4.8-0.5-8.6-1.2-8.6-1.2c-0.6,0.1-3.7,0.4-4.6,0.7c-0.6,0.2-2.6,2.3-3.5,2.9
					c-1.3,0.9-2.8,0.4-2.1-1.3C661.6,162.3,663.2,161.2,666,160.5z"/>
				<path class="st22" d="M654.2,148.1c1.1-4.6,10-5.8,11.9-1.3c2.2,5.3,0.7,11.5-5.2,12.3c-5.8,0.8-8.1-0.9-8.1-0.9l-2.1,4.7
					c0,0,7.2,2.6,12.5,0.4c10.5-4.3,10.6-12.4,8.4-18.9c-2.4-7.2-12.1-8.9-16.9-4.5c-4.7,4.4-2.6,5.6-2.6,5.6L654.2,148.1z"/>
				<path class="st15" d="M663.5,158.7c0.5,1.2,1.8,1.7,3.3,2c2.6,0.5,4.2,0.8,4.3-0.7c0.1-2.1-6.6-5-7.5-4.7
					C662.8,155.7,663.2,158,663.5,158.7z"/>
				<path class="st15" d="M663.4,155.2c0.6,2,2.9,2.7,5.7,3.6c2.2,0.7,3.8-0.3,3-1.6c-0.6-0.9-2.7-2-5.9-4.8
					C663.2,149.9,663.1,154.2,663.4,155.2z"/>
				<path class="st15" d="M666.4,148.1c0,0,0.4,1.4,1,2.5c0.4,0.9,0.7,1.4,2.2,2c4.7,2,4.8,4.4,1.5,4.1c-5.8-0.5-5.4-1.7-6.9-4.7
					C662.6,149,666.4,148.1,666.4,148.1z"/>
				<path class="st0" d="M669.8,142.4c0.6,2.5,1.6,3.8,3.5,5.6c1.8,1.7,1,1.5,3.1,4.6c2.1,3.2,6.1,4.6,7.1,1.5
					c1.6-4.8-2.4-7-5.5-8.9s-3.8-2.2-6-4.4C669.8,138.7,669.6,141.7,669.8,142.4z"/>
				<path class="st4" d="M683.7,151c-0.6-2.8-3.4-4.4-5.7-5.8c-3.1-1.9-3.8-2.2-6-4.4c-2.2-2.2-2.4,0.8-2.2,1.5
					c0.6,2.5,1.6,3.8,3.5,5.6c1.8,1.7,1,2.4,3.1,5.6c1.5,2.3,3.8,4.2,6.2,4.3"/>
			</g>
			<path class="st22" d="M624.2,174.8h10.5c12.5,0,22.7-10.1,22.7-22.7v-19.1h-55.8v19.1C601.5,164.7,611.7,174.8,624.2,174.8z"/>
			<polygon class="st21" points="610.7,147.6 613.5,144.3 621,144.5 623.6,147.8 623.6,160.4 610.6,160.1 			"/>
			<path class="st4" d="M617.7,133.1l0.1,14.1c0,0-2.6,1.9-2.3,1.8c0.3-0.1,3.6,0.9,3.6,0.9l-3.6,1.2"/>
			<path class="st22" d="M721.7,158.5c5.8-4,16.6-15,21.7-19.4c15.4-13.6,30.6-16.8,30.6-16.8l0.1,77.3c0,0-15.8-31.1-21.4-40.8
				c-4.1,4.4-7.6,8.3-12.7,12.4c-3,2.4-5.7,6-9.3,7.3c-3.9,1.5-1.8-1.6-2.6-6.3c-0.5-2.8-1.5-4.7-3.8-8.1
				C722,160.7,719.7,159.9,721.7,158.5z"/>
			<g>
				<path class="st24" d="M742.6,109.3c-4.6-2.6-4.9-9.7-0.8-12.6c6.2-4.4,19.3-0.5,20.6,11.7c1.3,12.5,9.9,13.3,9.5,15
					c-0.4,1.7-0.8,5.2-9.7,5.5C748.9,129.4,743.6,109.9,742.6,109.3z"/>
				<path class="st7" d="M762.2,129.4c-11,0.4-16.5-12.3-18.9-17.7c-0.4-0.9-0.8-1.8-0.9-2c-2.3-1.3-3.7-3.7-3.8-6.6
					c-0.1-2.8,1-5.3,3-6.8c3.2-2.3,8-2.5,12.4-0.5c5,2.3,8.3,6.8,8.9,12.5c0.9,8.6,5.4,11.5,7.7,13.1c1.1,0.7,1.9,1.2,1.7,2l0,0.2
					c-0.4,1.9-1.1,5.3-9.7,5.7C762.4,129.4,762.3,129.4,762.2,129.4z M742.1,97.1c-1.8,1.3-2.8,3.5-2.7,6c0.1,2.5,1.4,4.7,3.4,5.8
					l0,0c0.3,0.2,0.5,0.7,1.3,2.4c2.3,5.3,7.6,17.6,18,17.2c8.3-0.3,8.9-3.4,9.3-5l0-0.2c0-0.2-0.8-0.7-1.3-1.1
					c-2.5-1.6-7.2-4.7-8.2-13.8c-0.6-5.4-3.6-9.6-8.3-11.8c-2.1-0.9-4.3-1.3-6.3-1.2C745.3,95.5,743.5,96.1,742.1,97.1z"/>
				<path class="st7" d="M750,124.4c1.4-0.1,2.8-0.5,4-1.5c0.2-0.2,0.2-0.5,0-0.6c-0.2-0.2-0.5-0.2-0.6,0c-2,1.8-5.1,1.4-6.2,0.8
					c-0.2-0.1-0.5,0-0.6,0.2c-0.1,0.2,0,0.5,0.2,0.6C747.4,124.1,748.6,124.4,750,124.4z"/>
				<path class="st12" d="M749.5,124c0,0,1.9,1.9,4.4,5.2c2.5,3.2,3.9,4.7,3.4,6.5c-0.5,1.8,5.1-0.6,8.6-3c3.5-2.3,1.2-4.6,1.2-4.6
					s-3.3,0.5-6.3-1.8c-4.1-3.1-4.6-7-4.6-7L749.5,124z"/>
				<path class="st12" d="M741.6,111.7c0.1-1.4-0.1-2.9-0.2-3.5c-0.1-1,1.3-2.4,1.7-2.5c0.3-0.1,1.4,1.9,3.6,3.7
					c3.5,3,7.5,2.2,7.8,2.9c0.1,0.3,3.1-1.4,3.9,1.5c0.6,2.3-0.9,2.1-1.5,2.6c-0.6,0.5,1.4,6.9-5.4,8.1c-2.1,0.4-4.6-0.3-5.8-1.1
					c-3.2-2.1-3.5-6.9-3.7-7.7c-0.2-0.8-2.3-0.2-2.5-1.3C739.1,113.9,741.5,113.1,741.6,111.7z"/>
				<path class="st7" d="M748.2,112c1.3,0.1,1.5,3.5,0.1,3.6C746.8,115.6,746.5,111.9,748.2,112z"/>
			</g>
			<path class="st21" d="M656.3,124.4c1.5-4.7,25.9-42.2,34.3-25.3c3.9,7.8-1.6,16.2-14.5,18.9C663.2,120.6,656.3,124.4,656.3,124.4
				z"/>
			<path class="st15" d="M650.6,108.8c1.4-8.8,0.2-32.3,12.2-26c6.5,3.4,1.9,11-3.9,16.4C653,104.5,650.6,108.8,650.6,108.8z"/>
			<path class="st15" d="M588.1,127.9c-10.7-8.8-19.3-6.2-19.9-0.6c-0.4,4,3.5,3.7,13.4,4c10,0.2,12.1,1.8,12.1,1.8
				S589.6,129.2,588.1,127.9z"/>
			<path class="st21" d="M668.7,127.8c0,0,7.8-9.2,9.4-3.9C679.7,129.1,668.7,127.8,668.7,127.8z"/>
		</g>
	</g>
	<g>
		<path class="st25" d="M213.7,387.3c-1.2-0.7-10.2-2.8-18.4,1.3c-4.4,2.2-5.8,9.4-6.7,9.6c-0.9,0.2-7.1-2.3-17.3,0.4
			c-7.1,1.9-11,10.9-11.6,11.9c-0.6,0.9-1.9,4.2-1.9,5.6c0,1,30.7,22.7,32.4,22.4c1.2-0.2,4.9-11.4,11.6-14.9
			c6.2-3.3,13.8,0.3,15.6-0.4c1.9-0.7,3.7-7.8,8.9-10.4c6.4-3.2,13.3-2.6,13.8-2.8c0.5-0.2-1.1-2.8-2-3.7
			C237.1,405.3,215.8,388.4,213.7,387.3z"/>
		<path class="st26" d="M238.2,406.8c-1.1-0.4-7.1-0.4-12.6,1.7c-8.2,3-9.8,10.2-10.2,10c-1.1-0.4-7.8-2.4-15.1,1.1
			c-7.2,3.5-10.8,14.3-11.7,13.9c-0.9-0.4-28.4-20.3-29.4-21.9"/>
		<path class="st26" d="M215.6,418.1c-2-3.9-26.9-19.9-26.9-19.9"/>
		<line class="st26" x1="188.6" y1="433.4" x2="190.2" y2="438.5"/>
		<line class="st26" x1="215.1" y1="418.6" x2="214.5" y2="422.8"/>
		<line class="st26" x1="215.8" y1="418.1" x2="219.3" y2="420.5"/>
	</g>
	<g>
		<path class="st21" d="M428.1,120.2l19.3-5c5.4-1.4,11-2.1,16.6-2.1l64.5-0.1c8.1,0,14.7-6.6,14.7-14.7v-4.7
			c0-8.1-6.6-14.7-14.7-14.7h-52.1c-8.3,0-13.7,5.6-16.8,13.3c-2.9,6.9-3.7,9.7-7.6,12.7C445.7,109.7,428.1,120.2,428.1,120.2z"/>
		<line class="st22" x1="475.8" y1="89.4" x2="516.8" y2="89.4"/>
		<line class="st22" x1="475.8" y1="94.4" x2="489.3" y2="94.4"/>
		<line class="st22" x1="496.3" y1="93.4" x2="516.3" y2="93.4"/>
		<line class="st22" x1="475.3" y1="104.9" x2="510.3" y2="104.9"/>
	</g>
	<g>
		<path class="st15" d="M700.4,352.2c-1.2-2.7,0-5.9,2.7-7.2c2.6-1.1,6-3.2,10.3-6.8c5.9-5,10.7-10.1,13.7-13.4
			c1.9-2.1,5-2.4,7.2-0.8l22.3,15.7c0,0-4.8,13.8-29.6,27.1c-8,4.3-17.8,5.6-17.8,5.6L700.4,352.2z"/>
		<path class="st4" d="M736.2,325.3c0,0-11.6,14.7-21.8,21.9c-8.8,6.3-13.1,6.8-13.1,6.8"/>
		<ellipse class="st7" cx="729.1" cy="328.2" rx="1.4" ry="1.5"/>
		<ellipse class="st7" cx="725.6" cy="332.2" rx="1.4" ry="1.5"/>
		<ellipse class="st7" cx="722.1" cy="336" rx="1.4" ry="1.5"/>
	</g>
</g>
</svg>
