<svg version="1.1" id="Layer_1" xmlns="http://www.w3.org/2000/svg" x="0" y="0" viewBox="0 0 802 460" xml:space="preserve"><style>.st0{fill:none;stroke:#3d3935;stroke-linecap:round;stroke-linejoin:round;stroke-miterlimit:10}.st1{fill:#8fd6bd}.st1,.st2,.st3,.st4{stroke:#3d3935;stroke-linecap:round;stroke-miterlimit:10}.st2{stroke-linejoin:round;fill:#8fd6bd}.st3,.st4{fill:#489fdf}.st4{fill:none}.st5{fill:#489fdf}.st6{fill:#8fd6bd}.st7,.st8{stroke:#3d3935;stroke-miterlimit:10}.st7{stroke-linecap:round;fill:#fff}.st8{fill:#e06287}.st10{fill:#fff}.st11,.st13,.st14{fill:#3d3935;stroke:#3d3935;stroke-miterlimit:10}.st13,.st14{fill:#fff;stroke-linecap:round;stroke-linejoin:round}.st14{fill:#e06287}.st15{fill:#3d3935}.st16{fill:#e06287}.st17,.st18,.st19{stroke:#3d3935;stroke-miterlimit:10}.st17{stroke-linecap:round;stroke-linejoin:round;fill:#f1b828}.st18,.st19{fill:#fff}.st19{fill:#e06287;stroke-linecap:round}</style><path class="st0" d="M159.2 126h31v43h-31z"/><path class="st1" d="M315.4 228.5c6.3-3.3.2-7.2 8.8-11 9-3.9 15.5-16.5 12.3-20.3-4.5-5.2-16.6 0-20.6 7.3 0 0-6 8.2-7.8 18.5s3.2 11.3 3.2 11.3l4.1-5.8z"/><path class="st1" d="M306.9 263.1c.7-6.7 5.3-5.3 9.3-12s-3.7-6.3 1.3-9.7c5-3.3 13.3-6 9-11-4.3-5-16.3-2.7-21.3 6s-5 27-5 27l6.7-.3z"/><path class="st2" d="M289.5 262.1s-5.9-11.2-10.3-8.6c-4.1 2.5-7.8 4.5-10.9 5.6-10.5 3.9-15 0-16.1-2.6-3.2-8.2 4.6-7.4 11.2-11.4 5.7-3.4 7.3-11.7 14.7-12.3h.7c0-.1-.1-.2-.1-.3-1.4-2.9-7-3.5-9.6-10.8-3-8.3 6.3-11 1.7-16-4.7-5-2.3-14.3 5.3-18.3s7.3 4.7 6 13.3c-1.2 7.9 9.2 4.8 10.7 12.1 0 0-1.4-12.1 3.6-16.1s7 1.7 8.7-4.3 2.7-12.7 8.7-9c4.9 3 1.8 13.9.5 17.9-.3.8-.1 1.8.5 2.5 1.4 1.7 3.4 5.4 0 10-5.3 7.3-5.6 17.8-5.6 17.8l-4.1 30.4-15.6.1z"/><path class="st2" d="M292.9 212.9c.2 1.2.4 2.8.3 3.4-.4 10 2.4 6.2 5 15.5 2.7 9.3-1.2 30-1.2 30"/><path class="st3" d="M312.5 261.6l-5 27h-18l-4-26.5z"/><path class="st4" d="M297.9 256.1s.3-9-8-9.3c-8.3-.3 4-10.6-7.6-13.5-1.2-.3-2.1-.4-3.1-.4"/><path class="st5" d="M445.8 286.4l25.6 44.1 2.6-1.5c1.3-1 1.7-2.8.9-4.3L453 286.5c-1.1-1.9-3.3-2.8-5.2-1.6l-2 1.5z"/><path class="st0" d="M473.7 329.2l-34.1 19.7-25.7-44.5 34.1-19.7c1.6-.9 3.6-.4 4.5 1.2l22.4 38.8c.9 1.6.3 3.6-1.2 4.5z"/><path class="st6" d="M461.3 326.2l-34.1 19.7-25.7-44.5 34.1-19.7c1.6-.9 3.6-.4 4.5 1.2l22.4 38.8c.9 1.6.4 3.6-1.2 4.5z"/><path class="st5" d="M433 283.3l25.1 45 3.1-2.4c1.3-1 1.7-2.8.9-4.3l-21.9-38.2c-1.1-1.9-3.5-2.5-5.3-1.3l-1.9 1.2z"/><path class="st0" d="M461.3 326.2l-34.1 19.7-25.7-44.5 34.1-19.7c1.6-.9 3.6-.4 4.5 1.2l22.4 38.8c.9 1.6.4 3.6-1.2 4.5z"/><path class="st7" d="M189.5 410.7c-.4 1.4-2.5 16.7-2.1 17.1.3.3 30.8-1.5 31-2 .2-.5-.7-15.7-2-15.6-1.3.2-26.8-.1-26.9.5zM217.7 391.5c-1 1.3-27.9-1.6-28-2.8-.2-1.1 4.6-19.8 5.9-19.7 1.3.2 27.9 3.8 27.7 4.8-.1.6-.4 6.7-2.3 11.5-1.5 3.8-3.1 5.9-3.3 6.2z"/><path class="st7" d="M192.8 366.3c1.4-.5 17.1 8 16.7 8.5-.3.5-18.7 18.5-20.5 18.5-1.8 0-9.3-2.8-12.1-4.3-1.9-1-10.8-6.2-9.7-7.2 1.1-1 13.4-7.5 14.8-8.4 1.2-.7 9.9-6.8 10.8-7.1zM192.9 369.3c1.5.5 9.6 5.2 10.4 5.9M190.6 370.9c1.6.5 10.3 5.4 11.1 6M188.3 372.8c1.3.6 4.5 2.4 5.3 3M195.9 377.1c1 .6 2.6 1.4 3.4 2M185.9 374.5c2.1 1.1 9.4 5.9 10.5 6.6M179.6 378.8c1.7.9 5.5 3.2 6.8 4M189 384.6c1 .6 2.9 1.9 2.9 1.9M176.4 381.1c2.5 2.3 13.3 7.6 13.3 7.6"/><path class="st8" d="M773.8 280c0 14.8-3.2 20.7-13.5 21-1.3 0-2.8 0-4.4-.1-4.1-.4-67.6-5.7-143.7-12.1-5.4-.5-10.9-.9-16.4-1.4-24.8-2.1-50.5-4.2-75.7-6.3-5.3-.5-10.7-.9-15.9-1.3-82.6-6.9-155.2-12.9-161.4-13.3-12.5-.8-15.4-5.7-15.4-18.4 0-24-.2-184.7-.2-215 0-2.1.3-4 .8-5.7 2-6.4 7.7-9.6 17.5-8.8 13.1 1.2 390.6 32.3 405.2 33.6 16.3 1.4 23 7.6 23 20.7.1 11.5.1 191.7.1 207.1z"/><path class="st7" d="M781.8 66.9c0 11.5-.6 192-.6 207.4 0 18.7-10.7 27.8-20.5 26.8h-.3c10.3-.3 13.5-6.2 13.5-21 0-15.4-.1-195.6-.1-207.1 0-13.1-6.7-19.4-23-20.7-14.6-1.3-392.1-32.5-405.2-33.7-9.8-.9-15.5 2.3-17.5 8.8.8-6.2 11-16.1 22.9-15 13.1 1.2 393.1 32.6 407.7 33.8 16.4 1.4 23.1 7.6 23.1 20.7z"/><path class="st7" d="M758.8 68.7c0 3.5-1.8 212.7-1.8 216 0 .3-14.7-.7-38.7-2.5.1-30.9.7-168.1.7-180.6 0-1.2 0-2.3-.1-3.3-.7-8.9-4.5-12.3-15.8-13.5-10.6-1.1-297.7-27.1-308.2-27.7-10.6-.6-12.9 4.2-13.2 12.1v186C356 253 340 251.4 340 251c0-3.3-.3-215.2-.3-218.2 0-2.5 419.1 35 419.1 35.9z"/><path class="st4" d="M769.8 59.6c.7-.4 7.9-6 7.9-6"/><path class="st8" d="M613.4 375.3c-2.9.6-131.1-12.5-129.4-13.3 10.8-4.5 20.3-27.9 20.3-82.3 5.3.4 10.6.9 15.9 1.3 25.2 2.1 50.9 4.3 75.7 6.3v.5c0 40.4 2.5 74.2 17.5 87.5.1 0 0 0 0 0z"/><path class="st7" d="M613.4 375.3s.1 0 0 0c-15-13.4-17.5-47.1-17.5-87.4v-.5c5.5.5 11 .9 16.4 1.4.7 33.6 4.1 61.2 17.4 72.3.9.8-13.7 14.4-16.3 14.2z"/><path class="st1" d="M719.1 101.6c0 12.6-.6 149.7-.7 180.6-78.4-5.7-255.8-19.8-336.7-27V71.5v-2.3c.3-7.9 2.6-12.7 13.2-12.1 10.6.6 297.6 26.5 308.2 27.7 11.3 1.2 15.1 4.7 15.8 13.5.2 1 .2 2.1.2 3.3z"/><path d="M719 125.3c-35.3-2.9-296.3-25.8-337.2-29.1 0-.4 0-27.8.1-28.2.5-7.2 3.1-11.5 13.1-10.9 10.6.6 297.6 26.5 308.2 27.7 10.9 1.1 14.8 4.4 15.7 12.4 0 .3 0 27.7.1 28.1z" fill="#489fdf" stroke="#3d3935" stroke-miterlimit="10"/><circle transform="matrix(.07899 -.9969 .9969 .07899 297.754 482.248)" class="st3" cx="409.9" cy="80" r="10.2"/><circle transform="matrix(.07899 -.9969 .9969 .07899 326.999 519.901)" class="st3" cx="444.9" cy="83" r="10.2"/><circle transform="matrix(.07899 -.9969 .9969 .07899 358.086 559.549)" class="st3" cx="481.9" cy="86" r="10.2"/><path class="st10" d="M101.9 285.2s-.9 2.2 6.4 1.7c7.3-.5 8.2.1 8.3.6.1.3-.4 3.7-.5 5.4-.1 1.3.7 2 1.8-.1s2.5-4.7 2.5-4.7l16.5-.3s3.9-.5 6.2.5 3.9 1.2 4.6 3.3c.7 2.1 1.4 3.7 1.4 3.7s10.7-8.6 6.8-14.8c-3.9-6.2-13.5-4.7-21-4.8-7.5-.1-20.2-.3-22.3.4s-1.9 2.5-1.9 2.5-.9.8-.8 1.9-.6 1-.6 2.2c.1 1.2-.1 1.7-.1 1.7s-5.6-.1-6.4.2c-.7.2-.9.6-.9.6zM90.4 309.2l6.3-5.9s.2-2.8 1.1-5.2c1.3-3.2 3.4-6.3 4.1-7.2 1.3-1.7 2.6-2.3 2.3.3-.3 2.7-1 4.8-1 4.8s10.2.1 13.2 0c3 0 3 1.8 0 2.3-3 .5-4 .2-4 .2l-4.5 8.9s-6.7 3.7-12.8 4.1-4.7-2.3-4.7-2.3zM96.7 281.6s1.4-4.5-3.2-4.4-16.3-.6-19.1 10.7-3.9 23.3-3.9 23.3l13.1-.9 2.5-8.4s3.6 0 5.5-2.3c2.2-2.7 2.5-7.1 2.5-7.1s3-.4 4.9-1.3c1.9-.9-3-1.9-3-1.9l.7-7.7z"/><path class="st0" d="M99.3 316.5l5.5-6.4s1.7-1.8 2.6-2c3.8-.5 3.5-.5 3.9-1.2 1.3-2.4.7-8.4.7-8.4s2-.1 3.6-.1c3.8-.1 3.8-2 3-2.2-.3-.1-1.2-.1-2.2-.2-1.6-.1-5-.1-7-.1-2.8 0-6.5.1-6.5.1s1.7-4.3 1.4-5.6c-.5-2.4-1.4-1.3-3.3 2.3-1.5 2.9-1.9 2.9-3.1 5.7-.7 1.7-1.2 4.8-1.2 4.8l-12.9 12.9M103.5 302s1.9-3.8-.8-5.9"/><path class="st7" d="M105.6 308.2c.3.9 4.4.1 6.4-1 .7-.4.8-.6 1-1 .3-.6.1-2.3-.9-2.1-2.5.5-7.1 2.7-6.5 4.1z"/><path class="st7" d="M104.9 305.1c-.6-1.5 7.5-5 8.2-3.1.2.6-.2 1.4-1.1 1.9-5.2 2.5-6.6 2.3-7.1 1.2z"/><path class="st7" d="M104.7 302c-.5-1.5 7.4-4.9 8-3 .5 1.7-1.3 2.3-3.4 2.7-1.9.5-4.1 1.9-4.6.3z"/><path class="st5" d="M43.6 365s-5.7 10.8-2.9 18c1.7 4.5 4.8 4.3 11.3 4.3s45.5 1 45.5 1l15.6 41.3 10 1.2-5.4-40.2 22.1 46.7 9-.4s-5.7-40.4-11-56c-1.5-4.5-1.4-7.3-5.9-9-4.6-1.7-14-2.3-26.6-2.1-25 .3-33.1 2.1-39.9 2.4S43.6 365 43.6 365z"/><path class="st6" d="M70.5 310.3s-4.5-.1-11.3 13.9c-1.3 2.6-3.5 7.5-4.8 11.1-5.9 16.9-12 26.2-10.6 31.5.6 2.4 3.2 3.5 8.3 4.3 13.3 1.9 43.9-.7 43.9-.7s9.7-37.4 12.8-41.3c2-2.5 6.8-6.8 11.3-10.5 4.7-3.9 28.8-23.1 28.8-23.1s0-5.5-6.7-7.2c-1.3-.3-5.7-.4-5.7-.4s-23.8 16.7-26.5 18.5c-5.5 3.6-8.4 3.9-13.6 3.9H70.5z"/><path class="st11" d="M112.4 429.3c-.1 1.7-2.8 9.4-1.5 10.3 1.6 1.2 23.4 5.5 24.3 2.1.7-2.4-10.7-6.1-12.2-11.3-.5-1.7-10.5-2.8-10.6-1.1zM139.5 436.9c-.1 1.6-1.1 7.9.1 8.8 1.2.9 24.1 1.3 24.9-1 .7-2.3-16-8.7-16-8.7s-.6.6-5 1.1c-2.9.3-4-.9-4-.2z"/><path class="st0" d="M44.6 359.9c.8-3.6 3.6-9.5 12.1-30.4 8.8-21.5 14.5-18.4 16.9-18.9 2.5-.5 14.4-.6 25-.5 4.2 0 8.1-1.8 11.6-4.1 15.7-10.1 26.7-18.3 26.7-18.3l-16.8.5s-1.8 3.7-2.6 5.1-2 .4-1.3-2.6.4-3.8.4-3.8h-12c-1 0-2-.2-2.4-.7-.6-.6-.4-1.6.8-1.7 1.7-.1 6.4-.2 6.4-.2s-.8-.7.1-1.7c.8-.8-.2-1.5.6-2.6.3-.3.4-.6.6-1.2.2-.5-.3-.7.2-1.7.4-.8 1-1 1.9-1.3 1.5-.5 23.3-.3 33.3.2 10.4.5 16.1 8 3 19.3-12 10.3-25.3 19.4-36 29.1-6.2 5.6-6.7 9.7-7.7 13.2-3.7 13-9.3 32.6-9.3 32.6s-9.7 1.5-32.7 1.4c-23.2-.2-20.4-4.5-18.8-11.7zM135.5 287.9s13-2.3 13.4 7.6M106.7 333.5l2.2-8.5"/><path class="st0" d="M96.6 280.2s.3 1.7-.2 4.8c-.4 2.6-.8 4.5.5 4.5 3 0 3.7 1.2 1.9 1.8-1.8.6-4.5 1.1-4.5 1.1s-.1 2.1-.9 4.3c-.8 2.2-2.3 4.1-4.8 4.8-4.5 1.2-8.7-3.6-8.7-3.6M83.7 310.3l2.5-8.5"/><path class="st8" d="M53.5 312.1c-.3-.6-2.3-4.5-.8-9.7 1.5-5.1 5.1-7.7 12.3-10.1 7.1-2.4 8.4-13.3 19-16.9 9.3-3.1 11.7-.1 12.4 2 .7 2.3 0 2.9 0 2.9l-15.6 7.1s-.6-3.3-2.9-1.2-2 4.5.2 4.1c2.1-.5 1.4-.3 1.4-.3s1.5 4.8-2.1 7.4-3.3 7.1-4.4 11.2c-1.1 4.1-5.6 9.3-12.4 8.3-4.5-.6-7.1-4.8-7.1-4.8z"/><ellipse cx="90.4" cy="287.8" rx=".8" ry="1.7" fill="#3d3935" stroke="#3d3935" stroke-linecap="round" stroke-linejoin="round" stroke-miterlimit="10"/><path class="st0" d="M43.6 365s-7.8 16.2-.8 20.3M141.6 284.8l-4.8 2.9"/><path class="st13" d="M88.8 330.4h4.7v59.3h-4.7zM32.8 330.4h4.4v58.5h-4.4z"/><path class="st14" d="M32.8 334.2c1.8 3 18.7 4.3 32.5 4 10.2-.2 20-1.4 28.2-2.8v24.3c-6.7 1.2-17.6 2.5-27.8 2.7-9.2.1-32.9-.7-32.9-4.8v-23.4z"/><path class="st0" d="M96.2 370.1s33-1.9 38.6 3.3c5.6 5.1 14 63.4 14 63.4l-9 .4-22.3-47.7 5.7 41.2-10.4-1.3L98 390.1"/><path class="st13" d="M108.4 388.6l5.7-.4-1.1 1.2 2.1-.2-57.4 57.4-1-1-2.6-2.7z"/><path class="st13" d="M60.8 388.6l-5.7-.4 1.1 1.2-2.1-.2 57.3 57.4 1-1 2.7-2.7z"/><path class="st13" d="M86.4 388.6l5.7-.4-1.1 1.2 2.1-.2-57.4 57.4-1-1-2.6-2.7z"/><path class="st13" d="M38.8 388.6l-5.7-.4 1.1 1.2-2.1-.2 57.3 57.4 1-1 2.7-2.7z"/><path class="st14" d="M118.4 389.1s-23.7.9-32 1.1c-6.9.2-15 .4-23.4.3-8.4 0-33.7-1.5-33.7-1.5l-.1-3.8s18.3.8 34.3 1.1c6.9.1 13.8.2 20.7 0 15.1-.4 34.2-1.1 34.2-1.1v3.9z"/><path class="st0" d="M169.2 385l-6 5s-6.8-1-13.5-7.8c-6.2-6.2-7.5-8.8-7.5-8.8l26.5-17 20 11.5M240.8 407s22-8.7 30-14l8-5.3 21.3 17.3s-20.7 18-31.3 21.3-10.7 3.3-10.7 3.3L240.8 407z"/><path class="st15" d="M672.7 426.1c-2.3 5.1-14.7 10.5-12.7 12.9 2 2.4 17.5-4.2 18.8-7.1 1.2-3 1.3-6.9.7-7.2s-6.2.3-6.8 1.4z"/><path class="st15" d="M662.1 440.2c-1.2 0-2-.2-2.5-.7-.3-.3-.4-.7-.3-1.2.2-1.5 2.5-3.2 5.5-5.3 3-2.2 6.4-4.7 7.5-7 .2-.5.8-.9 1.9-1.2 1.6-.5 5-.9 5.7-.5 1.1.7.7 5.2-.5 7.9-1.1 2.6-10.9 7.1-16.1 7.9-.5 0-.9.1-1.2.1zm11.2-13.8c-1.2 2.6-4.7 5.2-7.9 7.5-2.3 1.7-4.9 3.5-5 4.5 0 .1 0 .2.1.3.1.1.6.5 2.6.2 5.3-.8 14.4-5.4 15.2-7.2 1.1-2.7 1.1-5.8.9-6.5-1.1-.2-5.5.5-5.9 1.2zm-.6-.3zM696.8 430.5c.1 7.4-12.8 14.3-9.6 16.9 1.8 1.5 16.3-6.7 17.1-9.6s.9-6.8.1-8.2-7.7-3.8-7.6.9z"/><path class="st15" d="M688 448.1c-.5 0-.9-.1-1.2-.3-.4-.4-.7-.8-.7-1.3-.1-1.5 1.6-3.4 3.8-5.7 2.8-3 6.3-6.7 6.3-10.3 0-1.6.7-2.7 2.1-3.1 2.2-.6 5.8.8 6.5 2 1 1.6.8 5.8 0 8.6-.8 2.6-10.4 8.4-15 9.8-.7.2-1.3.3-1.8.3zm11.4-19.8c-.3 0-.5 0-.8.1-.9.3-1.3.9-1.3 2 .1 4.1-3.6 8-6.6 11.1-1.8 1.9-3.6 3.8-3.5 4.8 0 .1 0 .3.3.5 0 0 .5.3 2.6-.5 5.2-1.9 13-7 13.6-8.8.9-3 .8-6.6.1-7.7-.3-.5-2.6-1.6-4.4-1.5zm-2.6 2.2z"/><path class="st16" d="M668.5 331.9c.8 14.3-2.2 33.9-2.3 45.4s3.5 48.6 3.7 50 9.6 1.2 10.3.2c.7-1 2.3-28.2 2.6-36.6.4-9.5 2.5-36.2 2.7-34.7.3 1.5 1.4 29.7 1.9 34.7s7.2 39.2 8 41.1 8.4 2.2 9 .4c.5-1.8-.8-40.2.5-47 1.3-6.9 3.3-35.9 2.1-46.1-1.2-10.3-4.3-16.5-4.3-16.5s-34.3 5.6-34.2 9.1z"/><path class="st15" d="M701.3 434c-2.3.1-5.6-.4-6.3-1.9-.9-2-7.5-36.7-8.1-41.2-.3-2.9-.9-13.7-1.3-22.4-.1-2-.2-4-.3-5.7-.7 8-1.7 21.3-2 28 0 .4-1.7 35.5-2.8 37-.9 1.2-7.4 1.2-9.7.7-.6-.1-1.5-.4-1.6-1.1-.2-1.2-3.9-38.5-3.7-50.1.1-4.5.5-10.4 1.1-16.6.8-9.4 1.7-20.1 1.2-28.8 0-.9-.1-2.7 17.5-6.6 8.5-1.9 17.1-3.3 17.2-3.3l.4-.1.2.4c.1.3 3.2 6.5 4.4 16.7 1.2 10.2-.8 39.2-2.1 46.3-.8 4.2-.6 20.5-.4 32.5.1 9.1.2 13.9-.1 14.6-.3 1.1-2 1.5-3.4 1.6h-.2zm-15.2-78.6l.1.6c.1.6.3 5.1.7 12.4.4 8.6.9 19.4 1.3 22.3.6 5.5 7.2 39.2 8 40.9.3.7 2.8 1.4 5.5 1.2 1.7-.1 2.3-.5 2.4-.7.2-.7.1-7.3 0-14.3-.2-12.7-.3-28.5.5-32.7 1.3-7.1 3.2-35.9 2.1-46-1-8.6-3.4-14.4-4.1-16-15.9 2.7-33 6.7-33.3 8.6.5 8.7-.4 19.5-1.2 28.9-.5 6.2-1 12-1.1 16.5-.1 11.5 3.5 48.6 3.7 49.9.7.7 8.4.7 9.3-.1.6-1.4 2.1-26.2 2.5-36.3.2-4.3.7-12.5 1.4-20.9 1.1-14.4 1.2-14.4 1.9-14.4l.3.1z"/><path class="st5" d="M720.8 330l-14.8.8s-38 3.8-40-1.8c-2-5.7-4.5-20.5-4.5-20.5l-3.8-11.2s-11.4 4.3-40.4 1.8c-22.5-1.9-35-12.3-35-12.3l8.1-13.3s15.7 8.7 36.2 7.3c4.9-.3 9.4 0 13.7-.7 7.4-1.1 23.2-8.9 23.5-9.3.3-.5 12-3.3 12-3.3s13.7-1.5 19.5 3.5c5.8 5 17.5 13.3 20.5 25.7s5 33.3 5 33.3z"/><path class="st0" d="M655 288.3l6.5 19.5s2 20.3 6.3 22.7c4.3 2.3 36.7-1 36.7-1"/><path class="st13" d="M740.8 293.3L738 283c-1.5-5.6-7.3-8.9-12.9-7.4l-36.3 9.9c-.9.2-3.4.8-3.7.8-3.2 0-11.3-3.6-11.3-3.6l7.1 9.5c.3.4.4.9.3 1.4-.3 1.5-.3 3.2.2 4.8l2.8 10.3c1.2 4.5 5.3 7.6 9.8 7.7l-.4 15.9c0 .7 1 .9 1.2.2l6.4-17.6 32.3-8.8c5.6-1.4 8.9-7.2 7.3-12.8z"/><path class="st17" d="M748.7 350.8l1.4-1c5.4-3.6 8.4-8.2 8.4-13.5 0-11.1-14.7-20.2-32.8-20.2s-32.8 9-32.8 20.2c0 11.1 14.7 20.2 32.8 20.2 3.3 0 6.5-.3 9.6-.9 1.6-.3 3.2-.4 4.8-.1 1.3.2 2.7.7 4.2 1.5 4.8 2.8 10.1 6.4 10.1 6.4s-4.4-8.9-5.7-12.6z"/><path class="st2" d="M730.8 336.7l-3.1-27.5c-.4-3.5-3.5-6-7-5.6l-40.7 4.6c-3.5.4-6 3.5-5.6 7l3.1 27.5c.4 3.5 3.5 6 7 5.6l40.7-4.6c3.3 0 13.5 5.5 13.5 5.5s-7.9-12-7.9-12.5z"/><path class="st10" d="M569.1 262c-.9 1.2.3 3.5 4.3 5.5 2.8 1.5 3.3 3.4 3.3 3.4s-2.2 3.2-6.8 4.7-7.4 1.6-7.4 1.6 4 3.5 9.9 6.1 9.9 3.5 9.9 3.5l7.7-13.4s-1.2-.4-1.8-1.7c-.7-1.3-2.8-4.3-5.8-5.4-2.9-1.2-10.7-4.1-11.6-4.5s-1.4-.1-1.7.2z"/><path class="st0" d="M657.8 297.5s-8.1 3.1-29.3 2.6c-31-.7-46.5-13.3-46.5-13.3l8.3-13.8s9.6 6.6 32.3 7.8c19 1 23.8-2.5 28.8-4.2 5-1.7 12.7-5.9 12.7-5.9"/><path class="st18" d="M674.8 263.6l-.5 9.8s-8.5 2-9.5.3 0-7 0-7l10-3.1z"/><path class="st13" d="M583.8 267.3c-.6-.4-1.2-.7-1.8-1-4.3-1.8-9.8-4-12-4.5s-1.3 3.5 2.3 5.3 4.5 3.5 4.5 3.5-2.7 7.2-23.4 7.4c-1.3 0 3.8 16.4 2.3 16.4-1.6 0-9.7-16.7-11.5-16.7-18.9.6-27.5-6.2-29.6-14.5-2.3-8.9.4-18.1 10.6-25.1 8.7-6 22.8-8.7 31.7-8.8 5.4-.1 14.5 1.1 20.5 3.5 4.5 1.8 9.7 6.8 11.4 14.2.5 2.1.7 4.1.7 5.8.1 9.5-5.7 14.5-5.7 14.5z"/><path class="st0" d="M590 273.6c0-.3-.8-.5-1-.8-.7-1.1-2.5-3.7-4.9-5.3"/><path class="st13" d="M582 286.8s-5.1-1.2-11-4.2c-4.7-2.3-8.8-5.3-8.8-5.3"/><path class="st0" d="M576.8 270.6s-1.3 4.6.3 9.3"/><path class="st13" d="M721.1 330.5c1 5.6.2 10.7-.2 15.6-.5 5-2 8.9-2.3 9.3-.4.4-1.2.6-1.6.1-.4-.4-.3-1.7-.3-1.7s-.7 2.1-2.4 2.3-1.4-1.8-1.4-1.8-1.1 2.4-3.4 1.4c-1.2-.5 0-3.6 0-3.6s-.5 2.9-2.4 2.3c-.8-.2-1-.8-.8-2.4.8-5 .8-12.2.8-12.2s-1.8.8-3.5 3.8-4.4 3-3.3-.3c.2-.6 1.1-2.1 1.5-3.3.8-2.6 1.6-7.5 4.3-9.2l15-.3z"/><path class="st0" d="M710.8 341.2s-.3 8.1-1.8 12.5M714.4 342s-.3 7.1-1.8 12.9M718.1 342.3s-.2 6.5-1.6 11.8"/><g><path class="st18" d="M668.7 240.2c-2.2.7-6.3 7.9-7.2 9.1-.9 1.2-5.4 4.3-5.4 4.7.1.5 3.2.5 3.1 1.4s-2.1 14.1 8 13.6c8.4-.4 9.4-7.5 9.5-8.1.2-.6 6.6-4.1 6.4-6.5 0-2.3-12.1-15-14.4-14.2z"/><path class="st15" d="M664.3 250.6c-1.8 0-1.9 4.6-.4 4.6 1.8-.1 1.8-4.6.4-4.6z"/><path class="st11" d="M668.5 233c-6.6.6-9.6 6.3-9.2 10.4.3 2.9 3.2 4.9 5 5 3.8.1 7.2-2.5 7.8-2.2.4.2 1.6 4.8 3.7 6.4 1.9 1.4 4.3-.1 4.6 2 .4 2.4-4.2 3-4.2 4.2 0 1.9-.3 4.6.2 4.1 2.6-2.4 10.4-1.6 10.8-9.2.3-6.2-4.1-6.5-4.6-7-.1-.1 3.5-4 0-8.2-2.9-3.4-6.7-.6-7.6-.5-.3 0-1.6-5.4-6.5-5z"/></g><path class="st5" d="M691.8 284.2s6.1 6.8 9.5 15.3c2.2 5.6 2.4 11.8 3.5 21.7.4 3.8 1.1 9.3 1.1 9.3l15.2.1s-3.8-25.3-4.2-28c-1.8-13.4-11.8-22.8-11.8-22.8l-13.3 4.4z"/><path class="st0" d="M674.7 267.3s10.6-.2 17 1.8c5.3 1.7 14 10.6 18.1 16.2 5.8 7.8 7.2 17.6 8.3 24.8 1 7 3.1 20.4 3.1 20.4l-15.1.3s-1.3-11-2.8-22.7c-1-7.4-3.8-14.4-8.5-20.1l-6.7-8.2"/><g><path class="st10" d="M499.9 202l-4.3 35.6-57.7-.5 4.1-35.7z"/><path class="st5" d="M500.3 201.3l-58.3.1.3-2.3c.3-2.3 2.2-4 4.4-4l48.3-.1c2.9 0 5.3 2.4 5.3 5.3v1z"/><path class="st19" d="M362.8 293.1c.6 10.3 2.1 34.8 2.1 36.6 0 1.8-3.7 12.1-.7 46.6 4.7 2.4 8.2-.5 8.2-.5s2.3-10.6 3.8-25.5c.1-1 2.5-16.6 2.8-20 .8-8.3 2.7-29.3 3.5-37.3-3.3 0-12.1.1-19.7.1z"/><path class="st15" d="M363.6 375.3c.2 1.2.2 5.1.7 5.5 1.3 1 11.2 3.2 12.5 3.5 1.3.3 7.8 1 8.5-.8.7-1.8-3.3-4.8-5.3-5.7-1.1-.5-6.3-4-7.2-5.2s-9.3 1.7-9.2 2.7z"/><path class="st19" d="M386.7 293.4c.6 10.3.1 34.6.1 36.3 0 1.8-4.9 12.4-.4 48.3 4.7 2.4 8.4-.6 8.4-.6s.1-8.5 3.3-27c.2-.9 2.3-15.8 2.6-19.2 1.2-13 4.2-31.6 4.9-38.3-3.2 0-11.3.4-18.9.5z"/><path class="st15" d="M385.6 375.3c.2 1.2.2 5.1.7 5.5 1.3 1 11.2 3.2 12.5 3.5 1.3.3 7.8 1 8.5-.8.7-1.8-2.8-3.7-4.8-4.5-1.1-.5-7.5-4.4-7.5-4.4s-9.5-.3-9.4.7z"/><path d="M406.1 308.2l-46.9.8 11.9-68.1s-5.1-4.8-4.3-11.7c.8-6.8 4.3-18.4 10-20.6 5.7-2.2 11.8-2.8 16.9-2.8 5.2 0 17.4 3 19.6 6.3 2.2 3.3 1.7 7.8 1.2 12.1s-.8 5.8.5 5.7c3.2-.4 15.7-3.3 15.7-3.3l-.3 14.2-17.5 3.7s.1 13.8 3.1 19.5c3 5.7 8.7 14.2 8.7 14.2l-10.8 7.7-6.3-11.8-1.5 34.1z" fill="#f1b828"/><path class="st7" d="M400 207l-1.8-8s4.3-.5 5.5-2.5c.7-1.2 1.7-4.7 1.8-5.3.2-.7 2.3-1.8 2.5-2.8.2-1-2.3-1-2.5-1.8-.2-.8-.5-4.2-1.2-5.5-.7-1.3-3.2-3-4.7-3.2-1.5-.2-5.8-.8-7.4 5.8-1.5 5.7-3.7 19.9-4.2 23.4-.1.4.2.8.7.8 2.8 0 11.8.2 11.3-.9z"/><ellipse cx="401" cy="187.3" rx=".5" ry="1.1" fill="#3d3935" stroke="#3d3935" stroke-linecap="round" stroke-miterlimit="10"/><path class="st0" d="M388.2 206.2s-6.1-.4-11.8 3.8c-4.1 3-8.1 8.8-9.4 17.6-3.1 21 26.3 20.1 39.1 18.2 12.9-2 24.3-4.7 24.3-4.7l.3-14.2s-25.4 6.4-38.8 4.7-8.7-12.6-8.7-12.6"/><path class="st0" d="M400.2 207.2s14.8 1 14.6 9.8c-.2 8.8-1 12.8-1 12.8M495.6 237.6h-58.3L442 199c.3-2.4 2.3-4.1 4.7-4.1h48.8c2.8 0 5 2.5 4.7 5.2l-4.6 37.5zM442 201.4h57.7M409.8 219.9l-.9 10.9M409.2 245.2l-3.1 63-46.9.8 11.9-68.1"/><path class="st13" d="M430.7 226.7s1-3.4 4.3-4.8c3.4-1.5 4.3-1.6 4.3-1.6l-1.4 3.8c-.3.8.5 1.6 1.3 1.3 2.6-.8 7.3-2.4 10.4-3.9 3.4-1.7 4 .5 1.3 2.4-1.6 1.1-6.6 3.6-6.6 3.6s7.3-1.8 9.2-2.5c1.8-.7 2.9.2 1.9 1.5-.3.4-2.4 1.8-2.4 1.8s2-.8 2.5.1c.8 1.5-2.8 3-2.8 3s.5-.2 1.3-.4c.7-.2 1.6-.2 1.6.9-.1.9-1.8 1.9-3.5 2.7-2 .9-5.2 2.3-9.9 3.6-8.6 2.3-11.8 2.7-11.8 2.7l.3-14.2z"/><path class="st3" d="M399.8 181.1c.7.3 1.4 1.7 2.8 1 1.8-.9 2.4-5-1.4-7.5-5.1-3.3-10-1.9-12.3-.2-3.3 2.5-3.7 7.2-4.5 7.6-.8.5-5.6-1.7-10.7 3.2-4.4 4.2-2.8 11.1-3.9 12-1.1.9-9.6.3-13.8 4.7-12 12.5 4.5 29 16.5 18.5 4.8-4.2 4.9-11.2 6.4-11.8 1.4-.6 4.5 2.7 9.3-1.7 3.1-2.9 1-7.1 1.3-7.4.6-.7 3.7.3 5.6-3.2 2.6-4.6-1.9-7.1-.7-7.7 1.1-.6.1-4.5 1.2-6.6.5-1.3 2.3-1.9 4.2-.9z"/></g><path class="st10" d="M417.4 292.4l8.4-4.8v.1c.1.7.5 4.8 1 6 .5 1.3 1.3 2.2 2.2 1.6s.6-3.9.8-5.5.1-4.9-1.5-7.1-3.8-4.4-3.8-4.4l-10.1 7.5s-.8.3.4 2.3c.8 1.1 1.9 3 2.6 4.3z"/><path class="st0" d="M424.7 278.3s3.2 3 4.5 6.7c1.3 3.7 0 6.5.2 8.8s-2.7 1.7-2.8-1c-.2-2.7-.7-6.5-.7-6.5"/><g><path class="st2" d="M576.2 401.5l-59.8 26.6-31.1-23.6 62.2-26.1z"/><path class="st14" d="M563.8 405.1L524 422.8l-18.8-14.2 41.4-17.3z"/><path class="st2" d="M576.2 401.5l-59.8 26.6 6.8-47.7 62.2-26.1z"/><path class="st14" d="M554.2 395s4.3-3.8 5.8-7.6c1.3-3.2-2.3-4.9-4.1-2.9-1.1 1.2-1.8 2.9-1.8 2.9s-2-2.2-4.5-1.3-3.2 4.3-.5 6.2c2.2 1.7 5.1 2.7 5.1 2.7z"/></g><path class="st2" d="M187.5 163.6s-5.3 29.3-4.7 55.3c.7 26 4 44.7 4 44.7l11.3-.4s-1.3-45 1.4-53.6c2.7-8.7 8-26 8-26s-.5 20.1.2 42.1 2.5 37.7 2.5 37.7l12.7-.4s-.7-30.7.7-50 .7-52 .7-52l-36.8 2.6z"/><path class="st0" d="M215.3 182.2l-16.7 2"/><path class="st15" d="M198.7 263s.7 5.9 0 7.6c-.3.7-3 .8-7.4 1-5.4.3-12.7.7-15.5.3-5-.7 2-4.3 6.3-5.7 4.3-1.3 5-2.7 5-2.7l11.6-.5z"/><path class="st15" d="M223.2 262.3s.9 6.7-.1 8c-1 1.3-23.2.4-25.9-.9-1.5-.8.9-3.5 5.3-4.3 3.8-.8 7.8-2.7 7.8-2.7l12.9-.1z"/><path class="st17" d="M103.5 52h32.7v43h-32.7z"/><path class="st0" d="M123.7 169h-20.2v-43h32.7v30.5c0 6.9-5.6 12.5-12.5 12.5zM255.5 52h32.3v43h-32.3z"/><path transform="rotate(9.119 68.178 147.516)" class="st0" d="M52.2 126h32v43h-32z"/><path class="st0" d="M136.2 156.5h-9v12"/><path class="st7" d="M129.1 96.1c.1.2.8 1.4 1.9 3.3l9.4-5.7c-1-1.7-1.7-2.8-1.9-2.9-.4-.6 1.3-2.7 1.3-4 0-1.3-.2-2.9.1-4.8.3-1.9 3.6-5.5 2-5.9-1.6-.4-5 1.5-5.9 5.1-.1.4-2.8-3.5-4.5-7.9-1.7-4.4-1.3-8.1-2.6-7.9-.8.1-.8 4 0 7.6.9 3.7 1.1 4.8.8 5-.3.3-1-.5-2.6-4-1.8-3.8-2.5-7-3.1-6.5-.6.5-.3 3.9 1.1 7.8 1.2 3.4 2 5.5 1.6 5.6-.4.1-1.4-1.2-3.1-3.9-2.1-3.3-3.6-6.7-4.1-6.3-.5.4.4 4.1 2.1 7.8 1.4 3 2.1 4.6 1.6 4.8-.4.1-2-.7-3.2-3-2-3.9-3.4-7.2-4.1-6.8-.5.3 0 4.2 2.1 8.2 2 4 4.9 8.1 5.4 8.6 2.1 2 5.3 4.8 5.7 5.8z"/><path class="st0" d="M59.3 135.8s6.2-.7 12.1.3c5.9 1 8.9 1.1 8.9 1.1M78.4 142.6l-18.9-2.1M57.7 145.6l19 3.4M128.8 58.7l-18.6.3M128.8 133.7c-1-.3-8.7 0-14.7.3M110.2 141.3s9.7-.7 15.3-.7M177.8 139.3h-13.6M269.8 87.3l-7.3.4M281.8 59.7h-18.3M271.7 73.5l-4.2 5.8.3-15M263.8 73l3.7 6.3"/><path class="st13" d="M444.9 230.5s3.9-.4 8.1-2.1M445.4 233.9l7.4-2.4"/><path class="st0" d="M412.8 245s-.5 16.3 7 26.7l4.8 6.7-10.8 7.7s-5.1-8.1-6.1-12.8M413.8 286l3.4 6.2M417.4 292.4l8.2-4.8"/><path class="st2" d="M432.8 284l25 43.8"/><path fill="#8fd6bd" stroke="#3d3935" stroke-linejoin="round" stroke-miterlimit="10" d="M445.5 286.1l25.9 44.4"/><path class="st16" d="M237.7 126c-7.3-11.4-13-12.7-23.4-13.4-7.4-.5-21.1-.4-21.1-.4s-25.6 1.5-31.3.1c-2.2-.6-5.2-1.1-7.8-3.7-7.5-7.6-14.5-16.4-14.5-16.4l-8.9 6.8s16.4 27.9 29.8 29c3.3.3 7.1.9 10.4 1 9.9.5 18.1 0 18.1 0s-3.6 19.1-4.1 23.8c-.5 4.6.1 9.3 1.8 10.7 1.1.9 8.9 0 8.9 0l4.4-1.9s1.3-1.8 4-1.9c2.7-.1 4.2-.4 4.2-.4l-1.9 14.7s11.9-3.4 22.5-7.7c4.2-1.7 9.9-4.8 12.7-6.8 7.2-5.3 9.3-13-3.8-33.5zm-3.6 22.1c-.7.8-7.4 4.1-7.4 4.1l-1.3.7 3.6-19.3s2.7 4.1 3.8 7.5 2 6.2 1.3 7z"/><path class="st0" d="M225.7 152.5l3.3-19s6.4 10.2 5.1 14.6c-.8 2.6-26.4 11.3-26.4 11.3l-1.6 14.8s11.1-3.2 21.9-7.7c7.9-3.3 15.9-6.7 18.3-12.7 5.3-13-13.2-35.5-19-38.5-9.5-5-42.9-2.6-59.6-2.3-5.3.1-11.5-2-15.2-5.9l-12.9-15-8.9 6.8s14.3 23.3 24.4 27.6c8.7 3.7 33.9 2.5 33.9 2.5s-1.5 11.7-4.1 23.8c-2.1 9.8 2.6 10.9 2.6 10.9l8.5-.2"/><path class="st13" d="M206.4 173.8s-7.6 5-12.9 5.6c-.9.1.3-1.8-.3-2.9-.3-.5-.5-1.1-.8-1.8-.3-.9-.2-1.6-.4-2.7-.1-.7-3 0-3-.9 0-1.6.5-3.1 3.2-5.6 1.9-1.8 8.9-4.4 8.9-4.4s1.3-1.2 3.5-1.6c2.2-.4 3.1.2 3.1.2l-1.3 14.1z"/><path class="st7" d="M197.4 165.7c-.9-1.2-9.5 4.3-8.3 5.8.6.8 1.6.7 3.3-.3 2.6-1.5 5.8-4.4 5-5.5zM199 170.2c.6.9-2.3 3.3-4.9 5-1.8 1.1-2.7 1.5-3.4.2-.7-1.4 1-2.5 3.2-3.8 2.1-1.4 4.4-2.3 5.1-1.4zM199.8 173.8c.5.5.4 1.3-.1 1.7-2.1 2-7 5.1-7.7 3.6-1.2-2.6.8-2.5 2.7-3.7 2.1-1.3 4.6-2.1 5.1-1.6z"/><path class="st13" d="M207 167.2s-.9-2.3-3.2-1.5c-2.3.8-2 1.1-5.2 2.5-3.4 1.4-4-.6-2.3-2.1 1.4-1.3 2.3-2.6 3.4-3.8 1.4-1.4 2.5-2.2 3.6-2.6 2.4-.9 4.4-.3 4.4-.3l-.7 7.8zM214.8 100.3l-1.5 13.3s-.9.5-6.8.9c-5.1.4-5-1.2-5-1.2l.7-7.3 12.6-5.7z"/><path class="st18" d="M208 106.1c-2.7.8-6.6.4-8.8-1.1-2.3-1.7-3.8-5.1-4.2-6.1-.4-1-3.7-1.9-4.4-2.9-.7-1.1 2.7-2.7 3.3-3.5.3-.5 2.1-4.2 2.7-5.2 4.6-7.3 17.3-4.3 19.4 4 .5 2 .2 5.9-1.4 9.1-1.1 2.5-3.3 4.8-6.6 5.7z"/><path class="st11" d="M197.4 86.5c0 .9 2 2.9 4.6 4.4 1.7 1 3.6 4.1 5.5 4.3 3.4.3.8 6.6 2.6 8.4 1.2 1.3 5 .8 6-1.4 1.2-2.7 3.1-8.3 2.8-11.6-.7-7.5-6.6-9.8-11.5-9.9-5.7-.1-10.1 2.4-10 5.8z"/><path class="st15" d="M199.8 94.9c-.3.8-.9 1.3-1.3 1.1-.4-.2-.4-1-.1-1.8.3-.8.9-1.3 1.3-1.1.4.2.4 1 .1 1.8z"/><path class="st7" d="M207.8 95.3s1.2-2.4 3.6-1.5c2.2.8 1.7 4 0 5.5-1.5 1.3-3.8.8-3.8.8"/><path class="st4" d="M229.5 125.3s.3 3.6-.5 8.2"/></svg>